<svg width="25" height="25" viewBox="0 0 25 25" fill="none" xmlns="http://www.w3.org/2000/svg">
<path d="M12.424 21.7535L4.18315 13.503C3.09022 12.4089 2.47617 10.925 2.47607 9.37763C2.47598 7.83028 3.08986 6.34626 4.18266 5.25205C5.27546 4.15783 6.75767 3.54306 8.30322 3.54297C9.84877 3.54288 11.331 4.15748 12.424 5.25156C13.5174 4.15871 14.9993 3.54492 16.5444 3.54492C18.0894 3.54492 19.5713 4.15871 20.6648 5.25156V5.25156C21.7559 6.34655 22.3686 7.8301 22.3686 9.3768C22.3686 10.9235 21.7559 12.4071 20.6648 13.502L12.424 21.7535ZM8.30308 5.48784C7.53464 5.48781 6.78345 5.71595 6.14453 6.14338C5.50561 6.57082 5.00765 7.17836 4.71364 7.88916C4.41963 8.59996 4.34278 9.38209 4.4928 10.1366C4.64282 10.8912 5.01298 11.5842 5.55646 12.1281L12.424 19.0037L19.2915 12.1281C19.6859 11.742 19.9937 11.2762 20.1944 10.7617C20.395 10.2472 20.4839 9.69587 20.4552 9.14431C20.4264 8.59276 20.2807 8.05366 20.0276 7.56289C19.7746 7.07212 19.42 6.64093 18.9876 6.29803C18.5551 5.95512 18.0547 5.70836 17.5195 5.57416C16.9844 5.43996 16.4269 5.4214 15.884 5.51972C15.3412 5.61804 14.8255 5.83098 14.3712 6.14437C13.9169 6.45776 13.5346 6.86442 13.2495 7.33727L12.424 8.67135L11.5984 7.33727C11.2576 6.76847 10.7743 6.29875 10.1962 5.97468C9.61817 5.6506 8.96555 5.48345 8.30308 5.48979V5.48784Z" fill="white"/>
</svg>
