<svg width="489" height="445" viewBox="0 0 489 445" fill="none" xmlns="http://www.w3.org/2000/svg">
<path d="M405.425 142.845C405.425 142.511 405.648 142.289 405.87 142.177C406.203 142.177 406.426 142.4 406.537 142.734C406.537 142.956 406.314 143.29 406.092 143.29C406.018 143.29 405.981 143.29 405.981 143.29C405.648 143.29 405.425 143.179 405.425 142.845ZM394.867 143.29C394.534 143.29 394.312 142.956 394.312 142.622C394.423 142.4 394.645 142.177 394.979 142.177C395.312 142.177 395.534 142.511 395.423 142.845C395.423 143.067 395.201 143.29 394.867 143.29ZM416.094 139.952C415.983 139.619 416.094 139.285 416.428 139.174C416.65 139.062 416.984 139.174 417.095 139.507C417.206 139.73 417.095 140.064 416.872 140.175C416.798 140.249 416.724 140.286 416.65 140.286C416.428 140.286 416.206 140.064 416.094 139.952ZM384.087 140.064C383.754 139.952 383.643 139.619 383.754 139.396C383.865 139.062 384.198 138.951 384.532 139.062C384.754 139.174 384.865 139.507 384.754 139.841C384.643 140.064 384.532 140.175 384.309 140.175C384.235 140.175 384.161 140.138 384.087 140.064ZM425.541 134.056C425.319 133.834 425.319 133.5 425.541 133.277C425.763 133.055 426.097 133.055 426.319 133.389C426.541 133.611 426.541 133.945 426.319 134.167C426.171 134.242 426.06 134.279 425.986 134.279C425.763 134.279 425.652 134.167 425.541 134.056ZM374.641 133.945C374.418 133.722 374.418 133.389 374.529 133.166C374.752 132.944 375.085 132.944 375.419 133.166C375.641 133.277 375.641 133.722 375.419 133.945C375.27 134.019 375.122 134.056 374.974 134.056C374.826 134.056 374.715 134.019 374.641 133.945ZM432.876 125.824C432.654 125.601 432.543 125.267 432.765 125.045C432.876 124.822 433.209 124.711 433.543 124.822C433.765 125.045 433.876 125.379 433.654 125.601C433.58 125.824 433.432 125.935 433.209 125.935C433.061 125.935 432.95 125.898 432.876 125.824ZM367.306 125.379C367.194 125.156 367.194 124.822 367.528 124.6C367.75 124.489 368.084 124.6 368.306 124.822C368.417 125.045 368.306 125.379 368.084 125.601C368.009 125.675 367.898 125.712 367.75 125.712C367.639 125.712 367.417 125.601 367.306 125.379ZM437.655 115.811C437.322 115.7 437.21 115.366 437.322 115.144C437.322 114.81 437.655 114.699 437.988 114.699C438.211 114.81 438.433 115.144 438.322 115.477C438.322 115.7 438.099 115.811 437.766 115.811C437.766 115.811 437.729 115.811 437.655 115.811ZM362.749 115.144C362.638 114.921 362.749 114.587 363.082 114.476C363.416 114.365 363.749 114.587 363.749 114.81C363.86 115.144 363.749 115.477 363.416 115.589C363.342 115.589 363.268 115.589 363.194 115.589C362.971 115.589 362.749 115.366 362.749 115.144ZM438.877 104.241C438.877 104.019 439.1 103.796 439.433 103.796C439.655 103.796 439.989 104.019 439.989 104.241C439.989 104.575 439.655 104.797 439.433 104.797C439.1 104.797 438.877 104.575 438.877 104.241ZM361.193 104.019C361.193 103.685 361.415 103.462 361.749 103.462C362.082 103.462 362.304 103.685 362.304 104.019C362.304 104.352 362.082 104.575 361.749 104.575C361.415 104.575 361.193 104.352 361.193 104.019ZM437.433 94.0061C437.322 93.6724 437.544 93.3386 437.766 93.3386C438.099 93.2274 438.433 93.3386 438.544 93.6724C438.544 94.0061 438.433 94.2286 438.099 94.3399C438.025 94.3399 437.988 94.3399 437.988 94.3399C437.766 94.3399 437.544 94.2286 437.433 94.0061ZM363.194 93.5611C362.971 93.5611 362.749 93.2274 362.86 92.8936C362.971 92.6711 363.305 92.4486 363.527 92.5599C363.86 92.6711 363.972 92.8936 363.972 93.2274C363.86 93.4499 363.638 93.6724 363.416 93.6724C363.342 93.6724 363.268 93.6353 363.194 93.5611ZM432.987 83.9936C432.876 83.7711 432.876 83.4374 433.209 83.2149C433.432 83.1036 433.765 83.1036 433.987 83.4374C434.099 83.6599 433.987 83.9936 433.765 84.1049C433.691 84.179 433.58 84.2161 433.432 84.2161C433.321 84.2161 433.098 84.1049 432.987 83.9936ZM367.75 83.5486C367.528 83.3261 367.417 82.9924 367.639 82.7699C367.75 82.4361 368.084 82.4361 368.417 82.5474C368.639 82.7699 368.75 83.1036 368.528 83.3261C368.454 83.4745 368.306 83.5486 368.084 83.5486C367.935 83.5486 367.824 83.5486 367.75 83.5486ZM425.986 75.6499C425.763 75.4274 425.652 75.0936 425.874 74.8711C426.097 74.6486 426.43 74.6486 426.652 74.7599C426.875 74.9824 426.986 75.3161 426.764 75.6499C426.615 75.7241 426.467 75.7611 426.319 75.7611C426.171 75.7611 426.06 75.7241 425.986 75.6499ZM374.974 75.0936C374.752 74.8711 374.752 74.5374 375.085 74.3149C375.307 74.0924 375.641 74.0924 375.863 74.3149C375.974 74.5374 375.974 74.9824 375.752 75.0936C375.678 75.242 375.567 75.3161 375.419 75.3161C375.27 75.3161 375.122 75.242 374.974 75.0936ZM416.872 69.6424C416.539 69.5311 416.428 69.1974 416.539 68.8636C416.761 68.6411 416.984 68.5299 417.317 68.6411C417.539 68.7524 417.762 69.0861 417.539 69.3086C417.539 69.5311 417.317 69.6424 417.095 69.6424C417.021 69.6424 416.947 69.6424 416.872 69.6424ZM384.198 68.9749C384.087 68.7524 384.198 68.4186 384.532 68.3074C384.865 68.1961 385.087 68.3074 385.31 68.5299C385.421 68.8636 385.31 69.1974 384.976 69.3086C384.902 69.3086 384.828 69.3086 384.754 69.3086C384.532 69.3086 384.309 69.1974 384.198 68.9749ZM406.426 66.4161C406.092 66.4161 405.87 66.0824 405.981 65.7486C405.981 65.5261 406.314 65.3036 406.537 65.3036C406.87 65.4149 407.092 65.6374 406.981 65.9711C406.981 66.1936 406.759 66.4161 406.537 66.4161C406.463 66.4161 406.426 66.4161 406.426 66.4161ZM394.867 65.8599C394.867 65.5261 395.09 65.3036 395.312 65.1924C395.645 65.1924 395.979 65.4149 395.979 65.7486C395.979 65.9711 395.757 66.3049 395.534 66.3049C395.46 66.3049 395.423 66.3049 395.423 66.3049C395.09 66.3049 394.867 66.0824 394.867 65.8599Z" fill="white"/>
<path d="M318.406 428.646C318.072 428.646 317.85 428.424 317.85 428.09C317.85 427.756 318.183 427.534 318.406 427.534C318.739 427.534 318.961 427.756 318.961 428.09C318.961 428.424 318.739 428.646 318.406 428.646ZM329.075 427.756C328.964 427.422 329.186 427.2 329.519 427.2C329.853 427.2 330.075 427.422 330.186 427.645C330.186 427.979 329.964 428.312 329.63 428.312C329.297 428.312 329.075 428.09 329.075 427.756ZM307.292 427.979C306.959 427.979 306.736 427.645 306.848 427.311C306.848 427.089 307.181 426.866 307.403 426.866C307.737 426.866 307.959 427.2 307.959 427.534C307.848 427.756 307.625 427.979 307.403 427.979C307.329 427.979 307.292 427.979 307.292 427.979ZM340.077 426.532C339.966 426.199 340.188 425.865 340.522 425.865C340.855 425.865 341.078 425.976 341.189 426.31C341.189 426.644 340.966 426.866 340.744 426.977C340.67 426.977 340.633 426.977 340.633 426.977C340.3 426.977 340.077 426.755 340.077 426.532ZM296.29 426.199C295.956 426.087 295.845 425.865 295.845 425.531C295.956 425.197 296.178 424.975 296.512 425.086C296.845 425.197 297.068 425.42 296.956 425.754C296.845 425.976 296.623 426.199 296.401 426.199C296.401 426.199 296.364 426.199 296.29 426.199ZM350.969 424.307C350.858 424.085 351.08 423.751 351.413 423.64C351.635 423.64 351.969 423.751 352.08 424.085C352.08 424.419 351.969 424.641 351.635 424.752C351.561 424.752 351.524 424.752 351.524 424.752C351.302 424.752 350.969 424.641 350.969 424.307ZM285.509 423.195C285.176 423.084 285.065 422.861 285.176 422.527C285.287 422.194 285.62 422.082 285.843 422.194C286.176 422.305 286.287 422.527 286.176 422.861C286.176 423.084 285.954 423.306 285.732 423.306C285.658 423.306 285.583 423.269 285.509 423.195ZM361.638 421.415C361.527 421.081 361.749 420.747 361.971 420.636C362.305 420.525 362.638 420.747 362.749 421.081C362.86 421.304 362.638 421.637 362.416 421.749C362.342 421.749 362.268 421.749 362.193 421.749C361.971 421.749 361.749 421.637 361.638 421.415ZM275.174 419.079C274.84 418.967 274.729 418.634 274.84 418.3C275.063 418.077 275.396 417.966 275.618 418.077C275.952 418.189 276.063 418.522 275.952 418.856C275.84 418.967 275.618 419.079 275.396 419.079C275.322 419.079 275.248 419.079 275.174 419.079ZM372.085 417.632C371.973 417.299 372.196 416.965 372.418 416.854C372.751 416.742 373.085 416.965 373.196 417.187C373.307 417.521 373.085 417.855 372.863 417.966C372.788 417.966 372.714 417.966 372.64 417.966C372.418 417.966 372.196 417.855 372.085 417.632ZM265.394 413.739C265.06 413.627 264.949 413.182 265.171 412.96C265.283 412.737 265.727 412.626 265.949 412.849C266.172 412.96 266.283 413.294 266.06 413.516C265.986 413.739 265.838 413.85 265.616 413.85C265.542 413.85 265.468 413.813 265.394 413.739ZM382.309 413.182C382.198 412.849 382.309 412.515 382.531 412.404C382.865 412.292 383.198 412.404 383.309 412.737C383.42 412.96 383.309 413.294 383.087 413.405C383.013 413.479 382.939 413.516 382.865 413.516C382.643 413.516 382.42 413.405 382.309 413.182ZM392.2 408.065C392.089 407.731 392.089 407.397 392.423 407.286C392.645 407.175 392.978 407.175 393.2 407.509C393.312 407.731 393.2 408.065 392.978 408.287C392.904 408.287 392.793 408.287 392.645 408.287C392.534 408.287 392.311 408.176 392.2 408.065ZM256.28 407.286C255.947 407.064 255.947 406.73 256.169 406.507C256.28 406.285 256.725 406.174 256.947 406.396C257.17 406.619 257.17 406.952 257.058 407.175C256.947 407.286 256.725 407.397 256.614 407.397C256.466 407.397 256.355 407.36 256.28 407.286ZM401.758 402.28C401.536 402.057 401.647 401.724 401.869 401.501C402.091 401.39 402.425 401.39 402.647 401.724C402.758 401.946 402.758 402.28 402.425 402.391C402.351 402.465 402.277 402.502 402.203 402.502C401.98 402.502 401.758 402.391 401.758 402.28ZM247.945 399.832C247.723 399.61 247.723 399.276 247.945 399.054C248.168 398.831 248.501 398.831 248.723 399.054C248.945 399.276 248.945 399.61 248.723 399.832C248.575 399.907 248.427 399.944 248.279 399.944C248.13 399.944 248.019 399.907 247.945 399.832ZM410.871 395.939C410.649 395.716 410.649 395.382 410.982 395.16C411.205 394.937 411.538 395.049 411.76 395.271C411.871 395.494 411.871 395.827 411.649 396.05C411.538 396.161 411.427 396.161 411.316 396.161C411.093 396.161 410.982 396.05 410.871 395.939ZM240.499 391.489C240.277 391.266 240.388 390.932 240.61 390.71C240.833 390.487 241.166 390.487 241.388 390.821C241.499 391.044 241.499 391.377 241.277 391.6C241.203 391.674 241.092 391.711 240.944 391.711C240.721 391.711 240.61 391.6 240.499 391.489ZM419.54 388.93C419.318 388.707 419.318 388.374 419.54 388.151C419.762 388.04 420.207 388.04 420.318 388.262C420.54 388.485 420.54 388.819 420.318 389.041C420.17 389.115 420.058 389.152 419.984 389.152C419.762 389.152 419.614 389.078 419.54 388.93ZM233.942 382.366C233.831 382.144 233.831 381.81 234.164 381.587C234.387 381.476 234.72 381.587 234.942 381.81C235.053 382.032 234.942 382.366 234.72 382.589C234.646 382.663 234.535 382.7 234.387 382.7C234.275 382.7 234.053 382.589 233.942 382.366ZM427.764 381.476C427.542 381.254 427.542 380.92 427.764 380.697C427.986 380.475 428.32 380.475 428.542 380.697C428.764 380.92 428.764 381.254 428.542 381.476C428.394 381.624 428.245 381.699 428.097 381.699C427.949 381.699 427.838 381.624 427.764 381.476ZM435.432 373.466C435.21 373.244 435.21 372.91 435.432 372.687C435.543 372.465 435.988 372.465 436.21 372.687C436.433 372.799 436.433 373.244 436.21 373.466C436.062 373.54 435.914 373.577 435.766 373.577C435.618 373.577 435.506 373.54 435.432 373.466ZM228.385 372.799C228.163 372.465 228.274 372.131 228.608 372.02C228.83 371.909 229.163 372.02 229.274 372.242C229.497 372.465 229.385 372.91 229.052 373.021C228.978 373.021 228.904 373.021 228.83 373.021C228.607 373.021 228.385 372.91 228.385 372.799ZM442.545 364.9C442.323 364.789 442.212 364.344 442.434 364.121C442.656 363.899 442.99 363.899 443.212 364.01C443.434 364.232 443.545 364.566 443.323 364.789C443.175 364.937 443.027 365.011 442.878 365.011C442.73 365.011 442.619 364.974 442.545 364.9ZM223.606 362.675C223.384 362.452 223.606 362.119 223.829 361.896C224.162 361.785 224.495 362.007 224.607 362.23C224.718 362.564 224.607 362.897 224.273 363.009C224.199 363.009 224.125 363.009 224.051 363.009C223.829 363.009 223.606 362.897 223.606 362.675ZM222.94 361.229C222.828 360.895 222.94 360.561 223.273 360.45C223.495 360.339 223.829 360.45 223.94 360.784C224.051 361.006 223.94 361.34 223.606 361.451C223.532 361.525 223.495 361.562 223.495 361.562C223.273 361.562 223.051 361.451 222.94 361.229ZM448.991 355.889C448.769 355.777 448.658 355.332 448.88 355.11C448.991 354.887 449.435 354.776 449.658 354.999C449.88 355.11 449.991 355.444 449.769 355.777C449.658 355.889 449.547 356 449.324 356C449.25 356 449.139 355.963 448.991 355.889ZM219.494 350.549C219.383 350.215 219.605 349.881 219.939 349.881C220.161 349.77 220.495 349.992 220.606 350.215C220.606 350.549 220.495 350.882 220.161 350.882C220.087 350.957 220.05 350.994 220.05 350.994C219.828 350.994 219.605 350.771 219.494 350.549ZM454.77 346.432C454.548 346.21 454.437 345.876 454.548 345.654C454.77 345.431 455.103 345.32 455.326 345.431C455.659 345.542 455.77 345.876 455.548 346.21C455.474 346.358 455.326 346.432 455.103 346.432C455.029 346.432 454.918 346.432 454.77 346.432ZM217.383 339.535C217.383 339.201 217.605 338.979 217.938 338.867C218.161 338.867 218.494 339.09 218.494 339.424C218.605 339.646 218.383 339.98 218.05 339.98C217.975 339.98 217.938 339.98 217.938 339.98C217.716 339.98 217.494 339.869 217.383 339.535ZM459.882 336.531C459.549 336.42 459.438 336.086 459.549 335.752C459.66 335.53 459.993 335.307 460.327 335.53C460.549 335.641 460.66 335.975 460.549 336.197C460.438 336.42 460.327 336.531 460.105 336.531C460.03 336.531 459.956 336.531 459.882 336.531ZM216.271 328.41C216.271 328.187 216.494 327.854 216.827 327.854C217.049 327.854 217.383 328.076 217.383 328.41C217.383 328.632 217.16 328.966 216.827 328.966C216.494 328.966 216.271 328.744 216.271 328.41ZM463.994 326.185C463.772 326.074 463.55 325.74 463.661 325.517C463.772 325.184 464.105 325.072 464.439 325.184C464.661 325.295 464.772 325.517 464.772 325.851C464.661 326.074 464.439 326.185 464.217 326.185C464.143 326.185 464.068 326.185 463.994 326.185ZM215.827 317.285C215.827 316.951 216.049 316.729 216.383 316.729C216.605 316.729 216.938 316.951 216.938 317.285C216.938 317.619 216.716 317.841 216.383 317.841C216.049 317.841 215.827 317.619 215.827 317.285ZM467.328 315.616C466.995 315.505 466.773 315.171 466.884 314.837C466.995 314.615 467.217 314.392 467.551 314.504C467.884 314.615 467.995 314.837 467.995 315.171C467.884 315.394 467.662 315.616 467.44 315.616C467.365 315.616 467.328 315.616 467.328 315.616ZM216.383 306.716C216.049 306.716 215.827 306.494 215.827 306.16C215.827 305.826 216.049 305.604 216.383 305.604C216.716 305.604 216.938 305.826 216.938 306.16C216.938 306.494 216.716 306.716 216.383 306.716ZM469.551 304.714C469.329 304.602 469.107 304.38 469.107 304.046C469.218 303.712 469.44 303.49 469.773 303.601C470.107 303.601 470.329 303.935 470.218 304.269C470.218 304.491 469.996 304.714 469.662 304.714C469.662 304.714 469.625 304.714 469.551 304.714ZM216.716 295.591C216.494 295.591 216.16 295.369 216.271 295.035C216.271 294.701 216.494 294.479 216.827 294.479C217.16 294.479 217.383 294.812 217.383 295.035C217.272 295.369 217.049 295.591 216.827 295.591C216.753 295.591 216.716 295.591 216.716 295.591ZM470.885 293.589C470.551 293.589 470.329 293.366 470.329 293.032C470.329 292.699 470.663 292.476 470.885 292.476C471.218 292.587 471.44 292.81 471.44 293.144C471.44 293.366 471.218 293.589 470.885 293.589ZM217.383 284.466C217.16 284.466 216.938 284.244 216.938 283.91C216.938 283.576 217.16 283.354 217.494 283.354C217.827 283.354 218.05 283.687 218.05 284.021C218.05 284.244 217.716 284.466 217.494 284.466H217.383ZM470.44 282.019C470.44 281.685 470.663 281.462 470.996 281.351C471.329 281.351 471.552 281.685 471.552 281.907C471.552 282.241 471.329 282.464 470.996 282.464C470.663 282.464 470.44 282.241 470.44 282.019ZM218.161 273.341C217.827 273.341 217.605 273.119 217.716 272.785C217.716 272.451 217.938 272.229 218.272 272.229C218.605 272.34 218.827 272.562 218.827 272.896C218.716 273.119 218.494 273.341 218.272 273.341C218.198 273.341 218.161 273.341 218.161 273.341ZM469.662 270.894C469.662 270.671 469.885 270.337 470.107 270.337C470.44 270.226 470.774 270.449 470.774 270.782C470.774 271.116 470.551 271.339 470.218 271.45C469.885 271.45 469.662 271.227 469.662 270.894ZM219.161 262.327C218.828 262.327 218.605 261.994 218.716 261.66C218.716 261.437 218.939 261.215 219.272 261.215C219.605 261.215 219.828 261.549 219.828 261.771C219.717 262.105 219.494 262.327 219.272 262.327C219.198 262.327 219.161 262.327 219.161 262.327ZM467.884 259.991C467.884 259.657 467.995 259.435 468.329 259.324C468.662 259.212 468.884 259.435 468.995 259.769C469.107 260.102 468.884 260.325 468.551 260.436C468.551 260.436 468.514 260.436 468.44 260.436C468.217 260.436 467.995 260.214 467.884 259.991ZM220.272 251.202C219.939 251.202 219.717 250.98 219.828 250.646C219.828 250.312 220.05 250.09 220.383 250.09C220.717 250.201 220.939 250.424 220.939 250.757H220.828C220.828 250.98 220.606 251.202 220.272 251.202ZM465.217 249.2C465.217 248.977 465.328 248.644 465.661 248.532C465.995 248.421 466.217 248.644 466.328 248.866C466.439 249.2 466.217 249.534 465.995 249.645C465.921 249.645 465.847 249.645 465.773 249.645C465.55 249.645 465.328 249.422 465.217 249.2ZM221.384 240.189C221.161 240.189 220.939 239.855 220.939 239.521C220.939 239.299 221.273 239.076 221.495 239.076C221.828 239.076 222.05 239.41 222.05 239.632C222.05 239.966 221.717 240.189 221.495 240.189C221.495 240.189 221.458 240.189 221.384 240.189ZM461.772 238.742C461.66 238.409 461.772 238.075 462.105 237.964C462.327 237.852 462.661 238.075 462.772 238.297C462.883 238.631 462.772 238.965 462.438 239.076C462.364 239.076 462.327 239.076 462.327 239.076C462.105 239.076 461.883 238.965 461.772 238.742ZM222.606 229.064C222.273 229.064 222.05 228.841 222.162 228.507C222.162 228.174 222.384 227.951 222.717 227.951C223.051 228.062 223.273 228.285 223.273 228.619C223.162 228.841 222.94 229.064 222.717 229.064C222.643 229.064 222.606 229.064 222.606 229.064ZM457.437 228.507C457.215 228.285 457.326 227.951 457.66 227.84C457.882 227.617 458.215 227.84 458.438 228.062C458.549 228.285 458.438 228.619 458.104 228.841C458.03 228.841 457.956 228.841 457.882 228.841C457.66 228.841 457.437 228.73 457.437 228.507ZM158.592 221.944C158.592 221.61 158.814 221.387 159.147 221.387C159.481 221.387 159.703 221.721 159.703 221.944C159.703 222.277 159.481 222.5 159.147 222.5C158.814 222.5 158.592 222.277 158.592 221.944ZM169.705 221.832C169.705 221.499 169.928 221.165 170.261 221.165C170.594 221.165 170.817 221.387 170.817 221.721C170.817 222.055 170.594 222.277 170.261 222.277C170.039 222.277 169.705 222.055 169.705 221.832ZM148.034 222.055C147.7 222.055 147.478 221.721 147.478 221.387C147.589 221.165 147.811 220.942 148.145 220.942C148.367 220.942 148.589 221.276 148.589 221.499C148.589 221.832 148.367 222.055 148.034 222.055ZM180.819 220.942C180.708 220.609 180.93 220.275 181.263 220.275C181.597 220.275 181.819 220.497 181.93 220.831C181.93 221.054 181.708 221.387 181.375 221.387C181.041 221.387 180.819 221.165 180.819 220.942ZM136.92 220.831C136.587 220.72 136.475 220.497 136.475 220.164C136.475 219.83 136.809 219.607 137.142 219.719C137.365 219.719 137.587 220.052 137.587 220.386C137.587 220.609 137.253 220.831 137.031 220.831C136.957 220.831 136.92 220.831 136.92 220.831ZM191.821 219.385C191.71 219.051 191.933 218.717 192.266 218.717C192.599 218.606 192.822 218.829 192.933 219.162C192.933 219.496 192.71 219.719 192.488 219.83C192.414 219.83 192.377 219.83 192.377 219.83C192.044 219.83 191.821 219.607 191.821 219.385ZM452.214 218.717C451.992 218.495 452.103 218.161 452.436 218.05C452.658 217.827 452.992 217.939 453.103 218.161C453.325 218.495 453.214 218.829 452.992 218.94C452.844 219.014 452.733 219.051 452.658 219.051C452.436 219.051 452.288 218.94 452.214 218.717ZM126.029 218.829C125.695 218.717 125.473 218.384 125.584 218.161C125.584 217.827 125.918 217.605 126.251 217.716C126.473 217.716 126.695 218.05 126.584 218.384C126.584 218.606 126.362 218.829 126.14 218.829C126.066 218.829 126.029 218.829 126.029 218.829ZM223.829 218.05C223.495 218.05 223.273 217.716 223.273 217.382C223.273 217.16 223.606 216.937 223.94 216.937C224.162 216.937 224.384 217.271 224.384 217.494C224.384 217.827 224.162 218.05 223.829 218.05ZM202.713 217.16C202.602 216.826 202.824 216.492 203.046 216.492C203.38 216.381 203.713 216.604 203.713 216.826C203.824 217.16 203.602 217.494 203.38 217.494C203.305 217.494 203.268 217.494 203.268 217.494C202.935 217.494 202.713 217.382 202.713 217.16ZM115.248 215.936C114.915 215.825 114.693 215.491 114.804 215.157C114.915 214.935 115.248 214.712 115.582 214.824C115.804 214.935 116.026 215.269 115.915 215.491C115.804 215.825 115.582 215.936 115.36 215.936C115.285 215.936 115.248 215.936 115.248 215.936ZM213.382 214.267C213.382 213.934 213.493 213.6 213.826 213.6C214.049 213.489 214.382 213.6 214.493 213.934C214.604 214.267 214.382 214.49 214.16 214.601C214.086 214.601 214.012 214.601 213.938 214.601C213.715 214.601 213.493 214.49 213.382 214.267ZM104.69 212.154C104.468 212.042 104.246 211.709 104.357 211.375C104.468 211.152 104.802 210.93 105.135 211.152C105.357 211.264 105.58 211.486 105.468 211.82C105.357 212.042 105.135 212.154 104.913 212.154C104.839 212.154 104.765 212.154 104.69 212.154ZM224.051 210.819C223.94 210.596 224.051 210.262 224.384 210.151C224.607 210.04 224.94 210.262 225.051 210.485C225.162 210.819 225.051 211.152 224.718 211.264C224.644 211.264 224.57 211.264 224.495 211.264C224.273 211.264 224.051 211.152 224.051 210.819ZM446.213 209.484C445.99 209.261 446.101 208.927 446.324 208.705C446.546 208.482 446.879 208.594 447.102 208.816C447.213 209.039 447.213 209.372 446.99 209.595C446.842 209.669 446.731 209.706 446.657 209.706C446.435 209.706 446.324 209.595 446.213 209.484ZM234.498 207.147C234.387 206.814 234.498 206.48 234.831 206.369C235.053 206.257 235.387 206.48 235.498 206.702C235.609 207.036 235.498 207.37 235.165 207.481C235.09 207.481 235.016 207.481 234.942 207.481C234.72 207.481 234.498 207.37 234.498 207.147ZM94.5771 207.37C94.3548 207.259 94.2436 206.925 94.3548 206.591C94.4659 206.369 94.7993 206.257 95.1327 206.369C95.355 206.591 95.4661 206.925 95.355 207.147C95.2439 207.37 95.0216 207.481 94.7993 207.481C94.7252 207.481 94.6511 207.444 94.5771 207.37ZM224.94 206.925C224.607 206.925 224.384 206.702 224.384 206.369C224.495 206.035 224.718 205.812 225.051 205.812C225.385 205.924 225.607 206.146 225.496 206.48C225.496 206.702 225.273 206.925 224.94 206.925ZM244.833 203.031C244.722 202.809 244.833 202.475 245.167 202.364C245.389 202.252 245.723 202.364 245.834 202.697C245.945 202.92 245.834 203.254 245.5 203.365C245.426 203.365 245.352 203.365 245.278 203.365C245.056 203.365 244.945 203.254 244.833 203.031ZM85.0193 201.585C84.7971 201.474 84.6859 201.14 84.9082 200.806C85.0193 200.584 85.3527 200.472 85.6861 200.695C85.9084 200.806 86.0196 201.251 85.7973 201.474C85.6861 201.585 85.575 201.696 85.3527 201.696C85.2046 201.696 85.0934 201.659 85.0193 201.585ZM439.322 200.806C439.1 200.584 439.211 200.25 439.433 200.027C439.655 199.805 439.989 199.805 440.211 200.027C440.322 200.25 440.322 200.584 440.1 200.806C440.026 200.954 439.915 201.029 439.767 201.029C439.618 201.029 439.47 200.954 439.322 200.806ZM255.058 198.804C254.947 198.581 255.058 198.247 255.391 198.136C255.614 198.025 255.947 198.136 256.058 198.359C256.28 198.692 256.058 199.026 255.836 199.137C255.762 199.137 255.688 199.137 255.614 199.137C255.391 199.137 255.169 199.026 255.058 198.804ZM226.051 195.911C225.718 195.911 225.496 195.577 225.496 195.244C225.496 195.021 225.829 194.799 226.163 194.799C226.385 194.799 226.607 195.132 226.607 195.355C226.607 195.689 226.385 195.911 226.051 195.911ZM76.2396 194.799C75.9061 194.576 75.9061 194.242 76.1284 194.02C76.3507 193.797 76.6841 193.797 76.9064 193.909C77.1286 194.131 77.1286 194.465 77.0175 194.687C76.8693 194.836 76.7211 194.91 76.573 194.91C76.4248 194.91 76.3136 194.873 76.2396 194.799ZM265.283 194.465C265.171 194.242 265.283 193.909 265.616 193.797C265.949 193.686 266.172 193.797 266.394 194.02C266.505 194.354 266.283 194.687 266.06 194.799C265.986 194.799 265.912 194.799 265.838 194.799C265.616 194.799 265.394 194.687 265.283 194.465ZM431.654 192.796C431.431 192.574 431.431 192.24 431.654 192.017C431.876 191.795 432.209 191.795 432.432 192.017C432.654 192.24 432.654 192.574 432.432 192.796C432.32 192.907 432.209 192.907 432.098 192.907C431.987 192.907 431.765 192.907 431.654 192.796ZM275.507 190.126C275.396 189.904 275.618 189.57 275.84 189.459C276.174 189.236 276.507 189.459 276.618 189.681C276.73 190.015 276.618 190.349 276.285 190.46C276.211 190.46 276.137 190.46 276.063 190.46C275.84 190.46 275.618 190.349 275.507 190.126ZM68.2377 186.9C68.0155 186.677 68.0155 186.344 68.2377 186.121C68.46 185.899 68.9046 186.01 69.0157 186.232C69.238 186.455 69.238 186.789 69.0157 187.011C68.9416 187.085 68.8305 187.122 68.6823 187.122C68.5341 187.122 68.3859 187.048 68.2377 186.9ZM285.843 185.899C285.732 185.565 285.843 185.231 286.176 185.12C286.398 185.009 286.732 185.12 286.843 185.454C286.954 185.676 286.843 186.01 286.51 186.121C286.435 186.195 286.361 186.232 286.287 186.232C286.065 186.232 285.954 186.121 285.843 185.899ZM423.318 185.676C422.985 185.454 422.985 185.12 423.207 184.897C423.318 184.564 423.763 184.564 423.985 184.786C424.208 184.897 424.208 185.231 424.096 185.565C423.948 185.713 423.8 185.787 423.652 185.787C423.504 185.787 423.393 185.75 423.318 185.676ZM226.94 184.786C226.718 184.786 226.496 184.564 226.496 184.23C226.496 183.896 226.718 183.674 227.052 183.674C227.385 183.674 227.607 184.007 227.607 184.341C227.607 184.564 227.274 184.786 227.052 184.786C227.052 184.786 227.015 184.786 226.94 184.786ZM296.178 181.782C296.067 181.449 296.178 181.115 296.512 181.004C296.734 180.892 297.068 181.115 297.179 181.337C297.29 181.671 297.179 182.005 296.845 182.116C296.771 182.116 296.697 182.116 296.623 182.116C296.401 182.116 296.29 182.005 296.178 181.782ZM414.094 179.446C413.872 179.224 413.761 178.89 413.983 178.667C414.094 178.445 414.428 178.334 414.761 178.445C414.983 178.667 415.094 179.001 414.872 179.224C414.798 179.446 414.65 179.557 414.428 179.557C414.353 179.557 414.242 179.52 414.094 179.446ZM61.3473 178.111C61.2361 177.889 61.2361 177.555 61.4584 177.332C61.7918 177.221 62.1252 177.221 62.2364 177.555C62.4586 177.777 62.3475 178.111 62.1252 178.222C62.0511 178.297 61.94 178.334 61.7918 178.334C61.6807 178.334 61.4584 178.334 61.3473 178.111ZM306.625 177.889C306.514 177.555 306.625 177.332 306.959 177.221C307.181 177.11 307.514 177.221 307.625 177.555C307.737 177.777 307.625 178.111 307.292 178.222C307.218 178.222 307.144 178.222 307.07 178.222C306.848 178.222 306.625 178.111 306.625 177.889ZM317.072 174.44C317.072 174.106 317.183 173.772 317.517 173.661C317.739 173.55 318.072 173.772 318.183 174.106C318.295 174.329 318.072 174.662 317.85 174.774C317.776 174.774 317.702 174.774 317.628 174.774C317.405 174.774 317.183 174.662 317.072 174.44ZM404.314 174.329C404.092 174.217 403.981 173.884 404.092 173.661C404.203 173.327 404.536 173.216 404.759 173.327C405.092 173.439 405.203 173.772 405.092 174.106C404.981 174.217 404.759 174.44 404.536 174.44C404.462 174.44 404.388 174.403 404.314 174.329ZM227.83 173.661C227.496 173.661 227.274 173.439 227.274 173.105C227.274 172.771 227.607 172.549 227.941 172.549C228.163 172.66 228.385 172.882 228.385 173.216C228.385 173.439 228.163 173.661 227.83 173.661ZM327.852 171.325C327.741 171.102 327.963 170.769 328.297 170.657C328.519 170.546 328.853 170.769 328.964 171.102C328.964 171.325 328.853 171.659 328.519 171.77C328.445 171.77 328.408 171.77 328.408 171.77C328.186 171.77 327.852 171.547 327.852 171.325ZM394.09 170.435C393.756 170.435 393.534 170.101 393.645 169.767C393.756 169.434 394.09 169.322 394.312 169.434C394.645 169.545 394.868 169.767 394.756 170.101C394.645 170.324 394.423 170.546 394.201 170.546C394.127 170.546 394.09 170.509 394.09 170.435ZM338.633 168.877C338.633 168.544 338.855 168.321 339.077 168.21C339.41 168.21 339.744 168.432 339.744 168.655C339.855 168.989 339.633 169.322 339.299 169.322C339.299 169.322 339.262 169.322 339.188 169.322C338.966 169.322 338.744 169.211 338.633 168.877ZM55.6793 168.544C55.5682 168.21 55.6793 167.876 56.0127 167.765C56.235 167.654 56.5684 167.765 56.6796 167.987C56.7907 168.321 56.6796 168.544 56.4573 168.766C56.3832 168.766 56.3091 168.766 56.235 168.766C56.0127 168.766 55.7905 168.655 55.6793 168.544ZM383.309 167.876C382.976 167.876 382.754 167.542 382.865 167.32C382.865 166.986 383.198 166.764 383.532 166.875C383.754 166.875 383.976 167.209 383.976 167.431C383.865 167.765 383.643 167.987 383.42 167.987C383.346 167.913 383.309 167.876 383.309 167.876ZM349.635 167.097C349.635 166.875 349.857 166.541 350.08 166.541C350.413 166.43 350.746 166.652 350.746 166.986C350.746 167.32 350.524 167.542 350.302 167.654C350.228 167.654 350.191 167.654 350.191 167.654C349.968 167.654 349.635 167.431 349.635 167.097ZM372.307 166.764C372.085 166.652 371.751 166.43 371.862 166.096C371.862 165.874 372.085 165.651 372.418 165.651C372.751 165.651 372.974 165.874 372.974 166.207C372.863 166.541 372.64 166.764 372.418 166.764C372.344 166.764 372.307 166.764 372.307 166.764ZM360.749 166.207C360.638 165.874 360.971 165.651 361.193 165.651C361.527 165.54 361.749 165.874 361.86 166.096C361.86 166.43 361.638 166.652 361.304 166.764C360.971 166.764 360.749 166.43 360.749 166.207ZM228.496 162.647C228.163 162.536 227.941 162.314 227.941 161.98C228.052 161.757 228.274 161.424 228.608 161.535C228.83 161.535 229.163 161.757 229.052 162.091C229.052 162.425 228.83 162.647 228.496 162.647ZM51.345 158.197C51.2339 157.975 51.345 157.641 51.6784 157.53C52.0118 157.419 52.2341 157.53 52.3452 157.864C52.4564 158.086 52.3452 158.42 52.0118 158.531C52.0118 158.531 51.9748 158.531 51.9007 158.531C51.6784 158.531 51.4561 158.42 51.345 158.197ZM228.941 151.522C228.719 151.522 228.496 151.189 228.496 150.966C228.496 150.632 228.719 150.41 229.052 150.41C229.385 150.41 229.608 150.632 229.608 150.966C229.608 151.3 229.274 151.522 229.052 151.522C229.052 151.522 229.015 151.522 228.941 151.522ZM48.2332 147.517C48.1221 147.184 48.3443 146.85 48.6777 146.85C48.9 146.739 49.2334 146.961 49.2334 147.295C49.3446 147.517 49.1223 147.851 48.9 147.962C48.8259 147.962 48.7889 147.962 48.7889 147.962C48.4555 147.962 48.2332 147.74 48.2332 147.517ZM229.163 140.397C228.83 140.397 228.608 140.064 228.608 139.841C228.608 139.507 228.83 139.285 229.163 139.285C229.497 139.285 229.719 139.507 229.719 139.841C229.719 140.064 229.497 140.397 229.163 140.397ZM46.2327 136.504C46.2327 136.17 46.455 135.947 46.7884 135.836C47.0107 135.836 47.3441 136.059 47.3441 136.392C47.4552 136.615 47.233 136.949 46.8996 136.949C46.8996 136.949 46.8625 136.949 46.7884 136.949C46.5661 136.949 46.3439 136.726 46.2327 136.504ZM228.496 128.716C228.496 128.382 228.719 128.16 229.052 128.16C229.385 128.16 229.608 128.382 229.608 128.605C229.608 128.939 229.385 129.272 229.052 129.272C228.719 129.272 228.496 128.939 228.496 128.716ZM45.5659 125.379C45.5659 125.045 45.7882 124.822 46.1216 124.822C46.3439 124.822 46.6773 125.045 46.6773 125.379C46.6773 125.601 46.455 125.935 46.1216 125.935C45.7882 125.935 45.5659 125.601 45.5659 125.379ZM227.941 117.591C227.941 117.257 228.163 117.035 228.496 117.035C228.719 117.035 229.052 117.257 229.052 117.48C229.052 117.814 228.83 118.147 228.496 118.147C228.163 118.147 227.941 117.925 227.941 117.591ZM46.5661 114.81C46.2327 114.699 46.0105 114.476 46.0105 114.142C46.1216 113.809 46.3439 113.697 46.6773 113.697C47.0107 113.697 47.233 114.031 47.1218 114.254C47.1218 114.587 46.8996 114.81 46.5661 114.81ZM226.94 106.577C226.94 106.244 227.163 106.021 227.385 105.91C227.718 105.91 227.941 106.132 228.052 106.466C228.052 106.689 227.83 107.022 227.496 107.022C227.163 107.022 226.94 106.8 226.94 106.577ZM48.2332 103.796C47.8998 103.685 47.6775 103.462 47.7886 103.129C47.7886 102.795 48.1221 102.684 48.4555 102.684C48.6777 102.795 48.9 103.017 48.9 103.351C48.7889 103.574 48.5666 103.796 48.3443 103.796C48.2702 103.796 48.2332 103.796 48.2332 103.796ZM225.273 95.5637C225.273 95.2299 225.496 95.0074 225.718 94.8962C226.051 94.8962 226.385 95.1186 226.385 95.3411C226.496 95.6749 226.274 96.0087 225.94 96.0087C225.94 96.0087 225.903 96.0087 225.829 96.0087C225.607 96.0087 225.385 95.8974 225.273 95.5637ZM51.0116 93.0049C50.7893 93.0049 50.5671 92.6712 50.6782 92.3374C50.7893 92.0036 51.1227 91.8924 51.345 92.0036C51.6784 92.1149 51.9007 92.4487 51.7896 92.6712C51.6784 92.8937 51.4561 93.1161 51.2339 93.1161C51.1598 93.1161 51.0857 93.0791 51.0116 93.0049ZM222.94 84.7724C222.94 84.4386 223.051 84.1049 223.384 84.1049C223.718 83.9936 223.94 84.2162 224.051 84.4387C224.162 84.7724 223.94 85.1061 223.606 85.1061C223.606 85.1061 223.569 85.1432 223.495 85.2174C223.273 85.2174 223.051 84.9949 222.94 84.7724ZM55.0125 82.6587C54.7902 82.5474 54.6791 82.2136 54.7902 81.9911C54.9014 81.6574 55.2348 81.5462 55.4571 81.6574C55.7905 81.7687 55.9016 82.1024 55.7905 82.4361C55.6793 82.6586 55.4571 82.7699 55.2348 82.7699C55.1607 82.7699 55.0866 82.7328 55.0125 82.6587ZM219.717 74.2036C219.605 73.8699 219.828 73.5362 220.05 73.4249C220.383 73.3137 220.717 73.5362 220.828 73.7587C220.939 74.0924 220.717 74.4262 220.495 74.5374C220.42 74.5374 220.346 74.5374 220.272 74.5374C220.05 74.5374 219.828 74.4261 219.717 74.2036ZM60.1248 72.7574C59.9025 72.6462 59.7914 72.3124 59.9025 71.9786C60.1248 71.7561 60.4582 71.6449 60.6805 71.8674C60.9027 71.9786 61.0139 72.3124 60.9027 72.6462C60.7546 72.7945 60.5693 72.8686 60.3471 72.8686C60.273 72.8686 60.1989 72.8316 60.1248 72.7574ZM215.493 63.9687C215.271 63.7462 215.493 63.4124 215.716 63.1899C215.938 63.0787 216.271 63.1899 216.494 63.5236C216.605 63.7461 216.494 64.0799 216.16 64.1912C216.086 64.2653 216.012 64.3024 215.938 64.3024C215.716 64.3024 215.605 64.1912 215.493 63.9687ZM66.2373 63.5236C66.015 63.3011 65.9039 62.9674 66.1261 62.7449C66.3484 62.5224 66.6818 62.4111 66.9041 62.6336C67.1264 62.7449 67.2375 63.1899 67.0152 63.4124C66.9041 63.5237 66.6818 63.6349 66.5707 63.6349C66.4225 63.6349 66.3114 63.5978 66.2373 63.5236ZM73.35 54.9574C73.0166 54.7349 73.0166 54.4012 73.2389 54.1787C73.4611 53.9562 73.7946 53.9562 74.0168 54.0674C74.2391 54.2899 74.2391 54.6237 74.128 54.9574C73.9798 55.0316 73.8316 55.0686 73.6834 55.0686C73.5352 55.0686 73.4241 55.0316 73.35 54.9574ZM209.937 54.4012C209.714 54.1787 209.825 53.8449 210.048 53.6224C210.381 53.5112 210.715 53.5112 210.826 53.8449C211.048 54.0674 210.937 54.4011 210.715 54.6236C210.64 54.6978 210.529 54.7349 210.381 54.7349C210.233 54.7349 210.085 54.6237 209.937 54.4012ZM81.2407 47.1699C81.0184 46.9474 81.1296 46.6137 81.3518 46.3912C81.5741 46.1687 81.9075 46.1686 82.1298 46.5024C82.3521 46.7249 82.2409 47.0587 82.0187 47.2812C81.9446 47.3553 81.8334 47.3924 81.6852 47.3924C81.5741 47.3924 81.3518 47.2812 81.2407 47.1699ZM203.046 45.8349C202.824 45.6124 202.824 45.2787 203.046 45.0562C203.268 44.8337 203.602 44.8337 203.824 45.0562C204.046 45.2787 204.046 45.6124 203.824 45.8349C203.676 45.9832 203.565 46.0574 203.491 46.0574C203.343 46.0574 203.194 45.9832 203.046 45.8349ZM90.0205 40.3836C89.7982 40.0499 89.9093 39.7162 90.1316 39.6049C90.465 39.3824 90.7984 39.4937 90.9096 39.7162C91.1318 39.9387 91.0207 40.2724 90.7984 40.4949C90.6502 40.5691 90.5391 40.6062 90.465 40.6062C90.3539 40.6062 90.1316 40.4949 90.0205 40.3836ZM194.822 38.6037C194.6 38.3812 194.489 38.0474 194.711 37.8249C194.933 37.4912 195.267 37.4912 195.489 37.7137C195.711 37.8249 195.822 38.1587 195.6 38.4924C195.452 38.5666 195.304 38.6407 195.155 38.7149C195.081 38.7149 194.97 38.6778 194.822 38.6037ZM99.4671 34.5987C99.3559 34.2649 99.4671 33.9312 99.6893 33.8199C100.023 33.7087 100.356 33.7087 100.467 34.0424C100.578 34.2649 100.467 34.5987 100.245 34.8212C100.171 34.8212 100.097 34.8212 100.023 34.8212C99.8005 34.8212 99.5782 34.7099 99.4671 34.5987ZM185.487 32.8187C185.264 32.5962 185.042 32.2624 185.264 32.0399C185.375 31.7062 185.709 31.5949 186.042 31.8174C186.265 31.9287 186.376 32.2624 186.265 32.4849C186.153 32.7074 185.931 32.8187 185.709 32.8187C185.635 32.8187 185.561 32.8187 185.487 32.8187ZM109.58 29.9262C109.469 29.5924 109.58 29.2587 109.914 29.1474C110.136 29.0362 110.47 29.2587 110.581 29.4812C110.692 29.8149 110.581 30.1487 110.247 30.2599C110.247 30.2599 110.21 30.2599 110.136 30.2599C109.914 30.2599 109.692 30.1487 109.58 29.9262ZM175.262 28.5912C175.04 28.4799 174.818 28.1462 174.929 27.8124C175.04 27.5899 175.373 27.3674 175.707 27.4787C175.929 27.5899 176.151 27.9237 176.04 28.2574C175.892 28.4799 175.707 28.5912 175.484 28.5912C175.41 28.5912 175.336 28.5912 175.262 28.5912ZM120.138 26.4774C120.027 26.1437 120.25 25.8099 120.583 25.8099C120.805 25.6987 121.139 25.9212 121.25 26.1437C121.25 26.4774 121.139 26.8112 120.805 26.8112C120.805 26.8112 120.768 26.8112 120.694 26.8112C120.472 26.8112 120.25 26.6999 120.138 26.4774ZM164.593 25.8099C164.371 25.8099 164.148 25.4762 164.148 25.1424C164.26 24.9199 164.593 24.6974 164.815 24.6974C165.149 24.8087 165.371 25.0312 165.26 25.3649C165.26 25.6987 165.038 25.8099 164.704 25.8099C164.704 25.8099 164.667 25.8099 164.593 25.8099ZM131.03 24.2524C131.03 23.9187 131.252 23.6962 131.474 23.6962C131.808 23.5849 132.141 23.8074 132.141 24.1412C132.141 24.4749 131.919 24.6974 131.697 24.8087C131.623 24.8087 131.585 24.8087 131.585 24.8087C131.252 24.8087 131.03 24.5862 131.03 24.2524ZM153.702 24.3637C153.368 24.3637 153.146 24.0299 153.146 23.6962C153.257 23.4737 153.479 23.2512 153.813 23.2512C154.146 23.2512 154.368 23.5849 154.257 23.8074C154.257 24.1412 154.035 24.3637 153.702 24.3637ZM142.143 23.3624C142.143 23.1399 142.366 22.8062 142.699 22.8062C142.921 22.8062 143.255 23.0287 143.255 23.3624C143.255 23.6962 142.921 23.9187 142.699 23.9187C142.366 23.9187 142.143 23.6962 142.143 23.3624Z" fill="white"/>
<path d="M327.074 382.255H181.486C170.817 382.255 162.259 373.578 162.259 363.009V67.3063C162.259 56.6263 170.817 48.0601 181.486 48.0601H327.074C337.743 48.0601 346.301 56.6263 346.301 67.3063V363.009C346.301 373.578 337.743 382.255 327.074 382.255Z" fill="url(#paint0_linear_80_1248)"/>
<path d="M334.076 350.438H174.484V63.5239H334.076V350.438Z" fill="url(#paint1_linear_80_1248)"/>
<path d="M272.506 370.574H236.054C234.275 370.574 232.831 369.127 232.831 367.459C232.831 365.679 234.275 364.232 236.054 364.232H272.506C274.284 364.232 275.729 365.679 275.729 367.459C275.729 369.127 274.284 370.574 272.506 370.574Z" fill="url(#paint2_linear_80_1248)"/>
<path d="M306.181 269.559H204.602C197.489 269.559 191.821 263.885 191.821 256.765V137.394C191.821 130.274 197.489 124.6 204.602 124.6H306.181C313.293 124.6 319.072 130.274 319.072 137.394V256.765C319.072 263.885 313.293 269.559 306.181 269.559Z" fill="url(#paint3_linear_80_1248)"/>
<path d="M306.181 124.6H204.602C197.489 124.6 191.821 130.274 191.821 137.394V155.973H319.072V137.394C319.072 130.274 313.293 124.6 306.181 124.6Z" fill="url(#paint4_linear_80_1248)"/>
<path fill-rule="evenodd" clip-rule="evenodd" d="M255.391 311.5C246.945 311.5 240.054 304.602 240.054 296.147C240.054 287.692 246.945 280.795 255.391 280.795C263.838 280.795 270.728 287.692 270.728 296.147C270.728 304.602 263.838 311.5 255.391 311.5ZM255.391 281.907C247.612 281.907 241.166 288.36 241.166 296.147C241.166 304.046 247.612 310.387 255.391 310.387C263.282 310.387 269.617 304.046 269.617 296.147C269.617 288.36 263.282 281.907 255.391 281.907Z" fill="url(#paint5_linear_80_1248)"/>
<path d="M255.391 292.476C246.278 282.798 240.944 297.483 255.391 305.715C269.95 297.483 264.616 282.798 255.391 292.476Z" fill="url(#paint6_linear_80_1248)"/>
<path d="M227.607 172.549L212.493 184.675L223.051 195.133L227.607 192.796V172.549Z" fill="url(#paint7_linear_80_1248)"/>
<path d="M283.175 172.549L298.401 184.675L287.843 195.133L283.175 192.796V172.549Z" fill="url(#paint8_linear_80_1248)"/>
<path d="M264.393 172.549C265.616 178.668 260.615 183.006 255.947 183.006C255.725 183.006 255.539 183.006 255.391 183.006C255.243 183.006 255.095 183.006 254.947 183.006C250.168 183.006 245.167 178.668 246.5 172.549H227.607V240.078H255.391H283.175V172.549H264.393Z" fill="url(#paint9_linear_80_1248)"/>
<path fill-rule="evenodd" clip-rule="evenodd" d="M400.758 133.5L451.547 184.341C455.326 188.013 455.326 194.02 451.547 197.803L431.765 217.716C427.986 221.388 421.985 221.388 418.206 217.716L367.417 166.875C365.416 164.761 364.416 161.98 364.75 159.199L367.083 135.169C367.195 134.056 367.973 133.166 369.084 133.055L393.089 130.719C395.979 130.385 398.757 131.498 400.758 133.5ZM380.864 140.509C379.086 138.729 376.197 138.729 374.418 140.509C372.64 142.178 372.64 145.07 374.418 146.85C376.197 148.63 379.086 148.63 380.864 146.85C382.643 145.07 382.643 142.178 380.864 140.509Z" fill="url(#paint10_linear_80_1248)"/>
<path fill-rule="evenodd" clip-rule="evenodd" d="M406.426 168.099C406.426 172.549 403.87 175.219 399.869 175.219C395.868 175.219 393.312 172.549 393.312 168.099C393.312 163.76 395.868 160.979 399.869 160.979C403.87 160.979 406.426 163.76 406.426 168.099ZM397.09 168.099C397.09 170.547 398.202 171.993 399.869 171.993C401.647 171.993 402.647 170.547 402.647 168.099C402.647 165.763 401.647 164.317 399.869 164.317C398.202 164.317 397.09 165.763 397.09 168.099ZM420.651 161.09L403.87 184.675H398.313L414.983 161.09H420.651ZM425.763 177.667C425.763 182.005 423.207 184.787 419.206 184.787C415.206 184.787 412.649 182.005 412.649 177.667C412.649 173.217 415.206 170.547 419.206 170.547C423.207 170.547 425.763 173.217 425.763 177.667ZM416.428 177.667C416.428 180.003 417.428 181.56 419.206 181.56C420.985 181.56 421.985 180.003 421.985 177.667C421.985 175.219 420.985 173.773 419.206 173.773C417.428 173.773 416.428 175.219 416.428 177.667Z" fill="url(#paint11_linear_80_1248)"/>
<path d="M140.81 276.123L78.7957 326.185C77.0175 327.52 74.5725 327.298 73.2389 325.629L43.3432 288.471C42.0095 286.803 42.2318 284.355 44.01 283.02L106.024 232.958C107.691 231.623 110.136 231.845 111.47 233.514L141.365 270.671C142.699 272.34 142.477 274.788 140.81 276.123Z" fill="url(#paint12_linear_80_1248)"/>
<path d="M47.6775 293.812L56.6795 305.048L124.806 250.09L115.804 238.854L47.6775 293.812Z" fill="url(#paint13_linear_80_1248)"/>
<path d="M124.806 261.326L98.8003 282.352L97.0221 280.127L123.028 259.212L124.806 261.326Z" fill="url(#paint14_linear_80_1248)"/>
<path d="M129.029 266.555L103.023 287.47L101.245 285.356L127.251 264.33L129.029 266.555Z" fill="url(#paint15_linear_80_1248)"/>
<path d="M133.141 271.784L107.135 292.699L105.468 290.585L131.474 269.559L133.141 271.784Z" fill="url(#paint16_linear_80_1248)"/>
<path d="M84.1302 301.487C87.0198 305.159 86.4641 310.388 82.7966 313.391C79.2402 316.284 73.9057 315.727 70.905 312.056C68.0155 308.496 68.5711 303.156 72.2386 300.264C75.9061 297.26 81.1295 297.816 84.1302 301.487Z" fill="url(#paint17_linear_80_1248)"/>
<path d="M418.206 415.853H307.403C302.513 415.853 299.068 411.959 299.624 407.175L312.738 289.918C313.071 287.025 316.405 284.689 320.184 284.689H405.537C409.204 284.689 412.538 287.025 412.872 289.918L426.097 407.175C426.653 411.959 423.096 415.853 418.206 415.853Z" fill="url(#paint18_linear_80_1248)"/>
<path d="M388.533 407.175L375.308 289.918C374.974 287.025 371.751 284.689 367.973 284.689H320.184C316.405 284.689 313.071 287.025 312.738 289.918L299.624 407.175C299.068 411.959 302.513 415.853 307.403 415.853H380.753C385.532 415.853 389.088 411.959 388.533 407.175Z" fill="url(#paint19_linear_80_1248)"/>
<path d="M380.309 288.471L377.975 270.894C376.863 262.105 369.195 255.43 360.415 255.43C351.524 255.43 343.856 262.105 342.745 270.894L340.411 288.471C339.077 288.694 338.077 289.918 338.077 291.253C338.077 292.921 339.299 294.256 340.966 294.256C342.522 294.256 343.856 292.921 343.856 291.253C343.856 290.251 343.3 289.361 342.522 288.916L344.856 271.228C345.968 263.551 352.525 257.655 360.415 257.655C368.195 257.655 374.752 263.551 375.863 271.228L378.197 288.916C377.419 289.361 376.863 290.251 376.863 291.253C376.863 292.921 378.197 294.256 379.753 294.256C381.42 294.256 382.643 292.921 382.643 291.253C382.643 289.918 381.642 288.694 380.309 288.471Z" fill="url(#paint20_linear_80_1248)"/>
<path d="M352.413 32.1514H287.176C279.841 32.1514 273.951 38.0476 273.951 45.3901V69.5314C273.951 76.8739 279.841 82.7701 287.176 82.7701H300.291L313.516 96.0089V82.7701H352.413C359.748 82.7701 365.639 76.8739 365.639 69.5314V45.3901C365.639 38.0476 359.748 32.1514 352.413 32.1514Z" fill="url(#paint21_linear_80_1248)"/>
<path d="M306.07 55.4027C306.07 57.0714 304.736 58.5177 303.069 58.5177C301.402 58.5177 299.957 57.0714 299.957 55.4027C299.957 53.7339 301.402 52.3989 303.069 52.3989C304.736 52.3989 306.07 53.7339 306.07 55.4027Z" fill="url(#paint22_linear_80_1248)"/>
<path d="M317.294 55.4027C317.294 57.0714 315.961 58.5177 314.182 58.5177C312.515 58.5177 311.182 57.0714 311.182 55.4027C311.182 53.7339 312.515 52.3989 314.182 52.3989C315.961 52.3989 317.294 53.7339 317.294 55.4027Z" fill="url(#paint23_linear_80_1248)"/>
<path d="M328.519 55.4027C328.519 57.0714 327.074 58.5177 325.407 58.5177C323.74 58.5177 322.295 57.0714 322.295 55.4027C322.295 53.7339 323.74 52.3989 325.407 52.3989C327.074 52.3989 328.519 53.7339 328.519 55.4027Z" fill="url(#paint24_linear_80_1248)"/>
<path d="M339.633 55.4027C339.633 57.0714 338.299 58.5177 336.521 58.5177C334.854 58.5177 333.52 57.0714 333.52 55.4027C333.52 53.7339 334.854 52.3989 336.521 52.3989C338.299 52.3989 339.633 53.7339 339.633 55.4027Z" fill="url(#paint25_linear_80_1248)"/>
<path d="M131.697 165.873C131.697 184.007 116.915 198.803 98.8002 198.803C80.685 198.803 66.015 184.007 66.015 165.873C66.015 147.74 80.685 133.055 98.8002 133.055C116.915 133.055 131.697 147.74 131.697 165.873Z" fill="url(#paint26_linear_80_1248)"/>
<path d="M127.251 165.874C127.251 181.56 114.47 194.354 98.8002 194.354C83.13 194.354 70.4604 181.56 70.4604 165.874C70.4604 150.187 83.13 137.505 98.8002 137.505C114.47 137.505 127.251 150.187 127.251 165.874Z" fill="url(#paint27_linear_80_1248)"/>
<path d="M101.912 179.112V184.786H96.9109V179.001C93.3546 178.556 90.0205 177.11 87.4644 174.996L90.1316 169.656C92.7989 171.992 96.9109 173.661 99.6894 173.661C101.69 173.661 103.023 172.882 103.023 171.436C103.023 166.986 89.1314 169.767 89.1314 160.422C89.1314 156.195 92.1321 153.302 96.9109 152.523V146.961H101.912V152.523C105.024 152.857 107.913 153.858 110.136 155.305L107.58 160.756C104.802 159.198 101.245 157.975 99.1337 157.975C97.4666 157.975 96.3553 158.531 96.3553 159.755C96.3553 164.093 110.247 161.646 110.247 171.102C110.247 175.775 106.691 178.445 101.912 179.112Z" fill="url(#paint28_linear_80_1248)"/>
<path d="M175.373 121.485C175.373 136.948 162.815 149.52 147.367 149.52C131.919 149.52 119.36 136.948 119.36 121.485C119.36 106.021 131.919 93.4497 147.367 93.4497C162.815 93.4497 175.373 106.021 175.373 121.485Z" fill="url(#paint29_linear_80_1248)"/>
<path d="M171.595 121.485C171.595 134.835 160.814 145.737 147.367 145.737C134.031 145.737 123.139 134.835 123.139 121.485C123.139 108.024 134.031 97.2324 147.367 97.2324C160.814 97.2324 171.595 108.024 171.595 121.485Z" fill="url(#paint30_linear_80_1248)"/>
<path d="M150.034 132.721V137.616H145.811V132.721C142.699 132.276 139.81 131.052 137.698 129.272L139.921 124.6C142.255 126.602 145.811 128.049 148.145 128.049C149.812 128.049 150.923 127.381 150.923 126.157C150.923 122.375 139.143 124.711 139.143 116.701C139.143 113.141 141.699 110.694 145.811 110.026V105.354H150.034V110.026C152.701 110.249 155.146 111.139 157.036 112.362L154.813 117.035C152.479 115.7 149.478 114.699 147.589 114.699C146.144 114.699 145.255 115.144 145.255 116.145C145.255 119.927 157.147 117.814 157.147 125.935C157.147 129.829 154.035 132.165 150.034 132.721Z" fill="url(#paint31_linear_80_1248)"/>
<path d="M104.468 104.575L105.802 113.141L114.359 114.476L105.802 115.811L104.468 124.377L103.023 115.811L94.4659 114.476L103.023 113.141L104.468 104.575Z" fill="url(#paint32_linear_80_1248)"/>
<path d="M87.242 81.8799L88.7979 91.3361L98.2445 92.8936L88.7979 94.4511L87.242 104.019L85.6861 94.4511L76.2395 92.8936L85.6861 91.3361L87.242 81.8799Z" fill="url(#paint33_linear_80_1248)"/>
<path d="M143.699 187.901L145.255 197.358L154.813 198.915L145.255 200.473L143.699 209.929L142.143 200.473L132.697 198.915L142.143 197.358L143.699 187.901Z" fill="url(#paint34_linear_80_1248)"/>
<path d="M389.978 87.665L391.422 97.2325L400.98 98.6788L391.422 100.236L389.978 109.804L388.422 100.236L378.864 98.6788L388.422 97.2325L389.978 87.665Z" fill="url(#paint35_linear_80_1248)"/>
<path d="M369.195 191.906L369.973 196.579L374.752 197.357L369.973 198.136L369.195 202.92L368.417 198.136L363.638 197.357L368.417 196.579L369.195 191.906Z" fill="url(#paint36_linear_80_1248)"/>
<path d="M392.534 218.717L393.756 226.616L401.647 227.84L393.756 229.064L392.534 236.962L391.311 229.064L383.42 227.84L391.311 226.616L392.534 218.717Z" fill="url(#paint37_linear_80_1248)"/>
<path d="M130.919 332.749L132.252 340.536L140.032 341.871L132.252 343.095L130.919 350.882L129.696 343.095L121.917 341.871L129.696 340.536L130.919 332.749Z" fill="url(#paint38_linear_80_1248)"/>
<path d="M132.475 408.287C132.475 407.954 132.697 407.731 132.919 407.731C133.253 407.731 133.586 407.954 133.586 408.287C133.586 408.621 133.364 408.844 133.03 408.844C132.697 408.844 132.475 408.621 132.475 408.287ZM122.028 406.396C121.694 406.285 121.583 405.951 121.805 405.618C121.917 405.395 122.25 405.284 122.472 405.395C122.806 405.506 122.917 405.84 122.806 406.174C122.658 406.396 122.472 406.507 122.25 406.507C122.176 406.507 122.102 406.47 122.028 406.396ZM143.033 405.395C142.921 405.172 142.921 404.839 143.255 404.616C143.477 404.505 143.81 404.616 144.033 404.839C144.144 405.061 144.033 405.395 143.81 405.618C143.736 405.692 143.625 405.729 143.477 405.729C143.366 405.729 143.144 405.617 143.033 405.395ZM113.581 398.831C113.47 398.609 113.47 398.275 113.804 398.052C114.026 397.941 114.359 397.941 114.582 398.275C114.693 398.497 114.693 398.831 114.359 399.054C114.285 399.054 114.211 399.054 114.137 399.054C113.915 399.054 113.693 399.054 113.581 398.831ZM150.923 397.719C150.59 397.496 150.479 397.162 150.701 396.94C150.812 396.717 151.145 396.606 151.368 396.718C151.701 396.829 151.812 397.162 151.59 397.496C151.516 397.645 151.368 397.719 151.145 397.719C151.071 397.719 150.997 397.719 150.923 397.719ZM110.025 388.151C110.025 387.817 110.247 387.595 110.47 387.595C110.803 387.595 111.136 387.817 111.136 388.04V388.151C111.136 388.374 110.914 388.707 110.581 388.707C110.247 388.707 110.025 388.485 110.025 388.151ZM153.368 386.594C153.368 386.26 153.59 386.037 153.924 386.037C154.257 386.037 154.48 386.26 154.48 386.594C154.48 386.927 154.257 387.15 153.924 387.15C153.59 387.15 153.368 386.927 153.368 386.594ZM153.146 383.479C153.146 383.256 153.368 382.923 153.59 382.923C153.924 382.811 154.257 383.034 154.257 383.368C154.257 383.701 154.035 383.924 153.813 384.035C153.739 384.035 153.702 384.035 153.702 384.035C153.479 384.035 153.146 383.813 153.146 383.479ZM112.359 377.805C112.025 377.694 111.914 377.36 112.025 377.026C112.137 376.804 112.47 376.693 112.803 376.804C113.026 376.915 113.137 377.249 113.026 377.582C112.915 377.805 112.803 377.916 112.581 377.916C112.507 377.916 112.433 377.879 112.359 377.805ZM149.034 373.689C148.812 373.355 148.812 373.021 149.034 372.91C149.367 372.688 149.701 372.687 149.812 373.021C150.034 373.244 150.034 373.577 149.812 373.8C149.664 373.874 149.515 373.911 149.367 373.911C149.219 373.911 149.108 373.837 149.034 373.689ZM119.138 369.239C118.916 368.905 119.027 368.571 119.249 368.46C119.472 368.238 119.916 368.349 120.027 368.571C120.25 368.794 120.138 369.127 119.916 369.35C119.842 369.424 119.731 369.461 119.583 369.461C119.472 369.461 119.249 369.35 119.138 369.239ZM140.476 367.125C140.254 366.902 140.143 366.68 140.254 366.346C140.365 366.012 140.699 365.901 140.921 366.012C141.254 366.124 141.365 366.458 141.254 366.791C141.143 367.014 140.921 367.125 140.699 367.125C140.625 367.125 140.55 367.125 140.476 367.125ZM129.363 365.011C129.252 364.678 129.474 364.455 129.807 364.344C130.141 364.344 130.363 364.566 130.363 364.9C130.474 365.234 130.252 365.456 129.918 365.456C129.585 365.456 129.363 365.345 129.363 365.011Z" fill="white"/>
<path d="M365.083 45.3899C365.083 45.0562 365.305 44.8337 365.639 44.8337C365.972 44.8337 366.194 45.0562 366.194 45.3899C366.194 45.6124 365.972 45.9462 365.639 45.9462C365.416 45.9462 365.083 45.7237 365.083 45.3899ZM355.081 42.0524C354.858 41.9412 354.858 41.4962 355.081 41.2737C355.303 41.0512 355.636 41.0512 355.859 41.2737C356.081 41.4962 356.081 41.8299 355.859 42.0524C355.785 42.2008 355.673 42.2749 355.525 42.2749C355.377 42.2749 355.229 42.2008 355.081 42.0524ZM375.196 41.2737C374.974 41.0512 374.974 40.7174 375.196 40.4949C375.419 40.2724 375.752 40.2724 375.974 40.4949C376.197 40.7174 376.197 41.0512 375.974 41.2737C375.863 41.3849 375.752 41.4962 375.53 41.4962C375.382 41.4962 375.271 41.422 375.196 41.2737ZM350.08 32.0399C350.08 31.7062 350.302 31.3724 350.635 31.3724C350.969 31.3724 351.191 31.5949 351.191 31.9287C351.191 32.2624 350.969 32.4849 350.746 32.4849H350.635C350.413 32.4849 350.191 32.2624 350.08 32.0399ZM379.086 30.8162C379.086 30.5937 379.308 30.2599 379.642 30.2599C379.975 30.2599 380.198 30.5937 380.198 30.8162C380.198 31.1499 379.975 31.3724 379.642 31.3724C379.308 31.3724 379.086 31.1499 379.086 30.8162ZM378.864 28.7024C378.864 28.4799 379.086 28.1462 379.42 28.1462C379.642 28.0349 379.975 28.2574 379.975 28.5912C380.086 28.9249 379.864 29.1474 379.531 29.2587C379.531 29.2587 379.494 29.2587 379.42 29.2587C379.197 29.2587 378.975 29.0362 378.864 28.7024ZM353.636 22.0274C353.414 21.8049 353.303 21.4712 353.525 21.2487C353.747 21.0262 354.08 21.0262 354.303 21.1374C354.525 21.3599 354.525 21.6937 354.414 21.9162C354.303 22.1387 354.08 22.1387 353.969 22.1387C353.821 22.1387 353.71 22.1016 353.636 22.0274ZM373.641 19.8024C373.307 19.5799 373.307 19.2462 373.529 19.0237C373.641 18.8012 373.974 18.6899 374.307 18.9124C374.53 19.0237 374.53 19.4687 374.418 19.6912C374.27 19.8395 374.122 19.9137 373.974 19.9137C373.826 19.9137 373.715 19.8766 373.641 19.8024ZM363.527 17.0212C363.194 17.0212 362.971 16.7987 362.971 16.4649C362.86 16.2424 363.083 15.9087 363.416 15.9087C363.749 15.9087 363.972 16.0199 364.083 16.3537C364.083 16.6874 363.861 16.9099 363.527 17.0212Z" fill="white"/>
<defs>
<linearGradient id="paint0_linear_80_1248" x1="407.982" y1="-210.374" x2="738.563" y2="361.381" gradientUnits="userSpaceOnUse">
<stop stop-color="white"/>
<stop offset="1" stop-color="#00557D"/>
</linearGradient>
<linearGradient id="paint1_linear_80_1248" x1="384.087" y1="-157.752" x2="668.587" y2="334.277" gradientUnits="userSpaceOnUse">
<stop stop-color="#92FFC3"/>
<stop offset="1" stop-color="#64B937"/>
</linearGradient>
<linearGradient id="paint2_linear_80_1248" x1="245.722" y1="348.657" x2="268.986" y2="388.909" gradientUnits="userSpaceOnUse">
<stop stop-color="#00557D"/>
<stop offset="1" stop-color="#19023E"/>
</linearGradient>
<linearGradient id="paint3_linear_80_1248" x1="276.396" y1="18.0226" x2="440.351" y2="301.565" gradientUnits="userSpaceOnUse">
<stop stop-color="white"/>
<stop offset="1" stop-color="#00557D"/>
</linearGradient>
<linearGradient id="paint4_linear_80_1248" x1="240.054" y1="110.805" x2="332.25" y2="176.576" gradientUnits="userSpaceOnUse">
<stop stop-color="#00A3C6"/>
<stop offset="1" stop-color="#64B937"/>
</linearGradient>
<linearGradient id="paint5_linear_80_1248" x1="256.391" y1="265.442" x2="286.097" y2="297.118" gradientUnits="userSpaceOnUse">
<stop stop-color="white"/>
<stop offset="1" stop-color="#00557D"/>
</linearGradient>
<linearGradient id="paint6_linear_80_1248" x1="192.933" y1="230.51" x2="302.16" y2="321.736" gradientUnits="userSpaceOnUse">
<stop stop-color="#19023E"/>
<stop offset="1" stop-color="#E93F7E"/>
</linearGradient>
<linearGradient id="paint7_linear_80_1248" x1="210.492" y1="136.949" x2="250.443" y2="191.2" gradientUnits="userSpaceOnUse">
<stop stop-color="#00A3C6"/>
<stop offset="1" stop-color="#64B937"/>
</linearGradient>
<linearGradient id="paint8_linear_80_1248" x1="300.402" y1="230.733" x2="260.34" y2="176.482" gradientUnits="userSpaceOnUse">
<stop stop-color="#00A3C6"/>
<stop offset="1" stop-color="#64B937"/>
</linearGradient>
<linearGradient id="paint9_linear_80_1248" x1="215.049" y1="62.0776" x2="344.027" y2="237.059" gradientUnits="userSpaceOnUse">
<stop stop-color="#085F3F"/>
<stop offset="1" stop-color="#64B937"/>
</linearGradient>
<linearGradient id="paint10_linear_80_1248" x1="303.402" y1="89.8901" x2="585.617" y2="165.951" gradientUnits="userSpaceOnUse">
<stop stop-color="#2D7109"/>
<stop offset="1" stop-color="#64B937"/>
</linearGradient>
<linearGradient id="paint11_linear_80_1248" x1="384.754" y1="127.604" x2="520.145" y2="262.746" gradientUnits="userSpaceOnUse">
<stop stop-color="#00FFCC"/>
<stop offset="1" stop-color="#000053"/>
</linearGradient>
<linearGradient id="paint12_linear_80_1248" x1="41.4539" y1="225.059" x2="201.825" y2="236.827" gradientUnits="userSpaceOnUse">
<stop stop-color="#00A3C6"/>
<stop offset="1" stop-color="#64B937"/>
</linearGradient>
<linearGradient id="paint13_linear_80_1248" x1="35.0079" y1="232.958" x2="213.162" y2="246.059" gradientUnits="userSpaceOnUse">
<stop stop-color="#00557D"/>
<stop offset="1" stop-color="#19023E"/>
</linearGradient>
<linearGradient id="paint14_linear_80_1248" x1="88.4646" y1="257.766" x2="148.701" y2="260.431" gradientUnits="userSpaceOnUse">
<stop stop-color="#00FFCC"/>
<stop offset="1" stop-color="#000053"/>
</linearGradient>
<linearGradient id="paint15_linear_80_1248" x1="92.6877" y1="262.995" x2="152.924" y2="265.66" gradientUnits="userSpaceOnUse">
<stop stop-color="#00FFCC"/>
<stop offset="1" stop-color="#000053"/>
</linearGradient>
<linearGradient id="paint16_linear_80_1248" x1="96.9109" y1="268.112" x2="157.147" y2="270.777" gradientUnits="userSpaceOnUse">
<stop stop-color="#00FFCC"/>
<stop offset="1" stop-color="#000053"/>
</linearGradient>
<linearGradient id="paint17_linear_80_1248" x1="35.008" y1="293.366" x2="110.916" y2="300.805" gradientUnits="userSpaceOnUse">
<stop stop-color="#19023E"/>
<stop offset="1" stop-color="#E93F7E"/>
</linearGradient>
<linearGradient id="paint18_linear_80_1248" x1="348.301" y1="203.365" x2="535.201" y2="389.963" gradientUnits="userSpaceOnUse">
<stop stop-color="#00A3C6"/>
<stop offset="1" stop-color="#133600"/>
</linearGradient>
<linearGradient id="paint19_linear_80_1248" x1="331.853" y1="177.778" x2="521.201" y2="366.932" gradientUnits="userSpaceOnUse">
<stop stop-color="#00A3C6"/>
<stop offset="1" stop-color="#64B937"/>
</linearGradient>
<linearGradient id="paint20_linear_80_1248" x1="341.633" y1="219.941" x2="422.401" y2="300.626" gradientUnits="userSpaceOnUse">
<stop stop-color="white"/>
<stop offset="1" stop-color="#00557D"/>
</linearGradient>
<linearGradient id="paint21_linear_80_1248" x1="316.628" y1="6.67512" x2="416.752" y2="106.698" gradientUnits="userSpaceOnUse">
<stop stop-color="#00A3C6"/>
<stop offset="1" stop-color="#64B937"/>
</linearGradient>
<linearGradient id="paint22_linear_80_1248" x1="278.508" y1="24.6977" x2="320.894" y2="67.0406" gradientUnits="userSpaceOnUse">
<stop stop-color="#00A3C6"/>
<stop offset="1" stop-color="#19023E"/>
</linearGradient>
<linearGradient id="paint23_linear_80_1248" x1="289.621" y1="24.6977" x2="332.008" y2="67.0406" gradientUnits="userSpaceOnUse">
<stop stop-color="#00A3C6"/>
<stop offset="1" stop-color="#19023E"/>
</linearGradient>
<linearGradient id="paint24_linear_80_1248" x1="300.846" y1="24.6977" x2="343.232" y2="67.0407" gradientUnits="userSpaceOnUse">
<stop stop-color="#00A3C6"/>
<stop offset="1" stop-color="#19023E"/>
</linearGradient>
<linearGradient id="paint25_linear_80_1248" x1="311.96" y1="24.6977" x2="354.346" y2="67.0406" gradientUnits="userSpaceOnUse">
<stop stop-color="#00A3C6"/>
<stop offset="1" stop-color="#19023E"/>
</linearGradient>
<linearGradient id="paint26_linear_80_1248" x1="108.469" y1="109.803" x2="200.584" y2="201.824" gradientUnits="userSpaceOnUse">
<stop stop-color="#00A3C6"/>
<stop offset="1" stop-color="#19023E"/>
</linearGradient>
<linearGradient id="paint27_linear_80_1248" x1="82.5743" y1="92.7824" x2="174.467" y2="184.581" gradientUnits="userSpaceOnUse">
<stop stop-color="#00A3C6"/>
<stop offset="1" stop-color="#64B937"/>
</linearGradient>
<linearGradient id="paint28_linear_80_1248" x1="110.581" y1="127.27" x2="203.252" y2="219.846" gradientUnits="userSpaceOnUse">
<stop stop-color="#00FFCC"/>
<stop offset="1" stop-color="#000053"/>
</linearGradient>
<linearGradient id="paint29_linear_80_1248" x1="155.591" y1="73.536" x2="234.245" y2="152.109" gradientUnits="userSpaceOnUse">
<stop stop-color="#00A3C6"/>
<stop offset="1" stop-color="#19023E"/>
</linearGradient>
<linearGradient id="paint30_linear_80_1248" x1="133.586" y1="59.0737" x2="212.017" y2="137.425" gradientUnits="userSpaceOnUse">
<stop stop-color="#00A3C6"/>
<stop offset="1" stop-color="#64B937"/>
</linearGradient>
<linearGradient id="paint31_linear_80_1248" x1="157.369" y1="88.4435" x2="236.579" y2="167.573" gradientUnits="userSpaceOnUse">
<stop stop-color="#00FFCC"/>
<stop offset="1" stop-color="#000053"/>
</linearGradient>
<linearGradient id="paint32_linear_80_1248" x1="105.58" y1="95.786" x2="166.322" y2="156.466" gradientUnits="userSpaceOnUse">
<stop stop-color="#00A3C6"/>
<stop offset="1" stop-color="#19023E"/>
</linearGradient>
<linearGradient id="paint33_linear_80_1248" x1="88.4645" y1="72.0899" x2="156.104" y2="139.661" gradientUnits="userSpaceOnUse">
<stop stop-color="#00A3C6"/>
<stop offset="1" stop-color="#19023E"/>
</linearGradient>
<linearGradient id="paint34_linear_80_1248" x1="144.922" y1="178" x2="212.562" y2="245.571" gradientUnits="userSpaceOnUse">
<stop stop-color="#00A3C6"/>
<stop offset="1" stop-color="#19023E"/>
</linearGradient>
<linearGradient id="paint35_linear_80_1248" x1="391.2" y1="77.875" x2="458.84" y2="145.446" gradientUnits="userSpaceOnUse">
<stop stop-color="#00A3C6"/>
<stop offset="1" stop-color="#19023E"/>
</linearGradient>
<linearGradient id="paint36_linear_80_1248" x1="369.862" y1="186.9" x2="403.682" y2="220.685" gradientUnits="userSpaceOnUse">
<stop stop-color="#00A3C6"/>
<stop offset="1" stop-color="#19023E"/>
</linearGradient>
<linearGradient id="paint37_linear_80_1248" x1="393.534" y1="210.707" x2="449.159" y2="266.275" gradientUnits="userSpaceOnUse">
<stop stop-color="#00A3C6"/>
<stop offset="1" stop-color="#19023E"/>
</linearGradient>
<linearGradient id="paint38_linear_80_1248" x1="132.03" y1="324.627" x2="187.655" y2="380.195" gradientUnits="userSpaceOnUse">
<stop stop-color="#00A3C6"/>
<stop offset="1" stop-color="#19023E"/>
</linearGradient>
</defs>
</svg>
