<svg width="20" height="21" viewBox="0 0 20 21" fill="none" xmlns="http://www.w3.org/2000/svg">
<g clip-path="url(#clip0_54_1671)">
<path d="M18.6801 16.1665H17.0614V14.5459C17.0614 14.331 16.9761 14.1249 16.8244 13.9729C16.6726 13.821 16.4667 13.7356 16.2521 13.7356C16.0374 13.7356 15.8315 13.821 15.6798 13.9729C15.528 14.1249 15.4427 14.331 15.4427 14.5459V16.1665H13.824C13.6093 16.1665 13.4035 16.2519 13.2517 16.4038C13.0999 16.5558 13.0146 16.7619 13.0146 16.9768C13.0146 17.1917 13.0999 17.3978 13.2517 17.5498C13.4035 17.7017 13.6093 17.7871 13.824 17.7871H15.4427V19.4077C15.4427 19.6226 15.528 19.8287 15.6798 19.9807C15.8315 20.1326 16.0374 20.218 16.2521 20.218C16.4667 20.218 16.6726 20.1326 16.8244 19.9807C16.9761 19.8287 17.0614 19.6226 17.0614 19.4077V17.7871H18.6801C18.8948 17.7871 19.1006 17.7017 19.2524 17.5498C19.4042 17.3978 19.4895 17.1917 19.4895 16.9768C19.4895 16.7619 19.4042 16.5558 19.2524 16.4038C19.1006 16.2519 18.8948 16.1665 18.6801 16.1665Z" fill="white"/>
<path d="M17.0613 5.63256H14.6333C14.6333 4.34313 14.1217 3.10651 13.211 2.19474C12.3003 1.28298 11.0651 0.770752 9.77717 0.770752C8.48925 0.770752 7.25408 1.28298 6.34338 2.19474C5.43268 3.10651 4.92106 4.34313 4.92106 5.63256H2.493C1.84904 5.63256 1.23145 5.88867 0.776103 6.34456C0.320754 6.80044 0.0649414 7.41875 0.0649414 8.06347L0.0649414 16.1665C0.0662265 17.2406 0.492993 18.2704 1.25163 19.0299C2.01027 19.7894 3.03883 20.2167 4.1117 20.218H11.3959C11.6105 20.218 11.8164 20.1326 11.9682 19.9807C12.12 19.8287 12.2052 19.6226 12.2052 19.4077C12.2052 19.1928 12.12 18.9867 11.9682 18.8347C11.8164 18.6828 11.6105 18.5974 11.3959 18.5974H4.1117C3.46774 18.5974 2.85016 18.3413 2.39481 17.8854C1.93946 17.4295 1.68365 16.8112 1.68365 16.1665V8.06347C1.68365 7.84856 1.76892 7.64246 1.9207 7.4905C2.07248 7.33854 2.27835 7.25316 2.493 7.25316H4.92106V8.87377C4.92106 9.08867 5.00633 9.29478 5.15811 9.44674C5.30989 9.5987 5.51576 9.68407 5.73041 9.68407C5.94506 9.68407 6.15092 9.5987 6.30271 9.44674C6.45449 9.29478 6.53976 9.08867 6.53976 8.87377V7.25316H13.0146V8.87377C13.0146 9.08867 13.0999 9.29478 13.2516 9.44674C13.4034 9.5987 13.6093 9.68407 13.8239 9.68407C14.0386 9.68407 14.2445 9.5987 14.3962 9.44674C14.548 9.29478 14.6333 9.08867 14.6333 8.87377V7.25316H17.0613C17.276 7.25316 17.4819 7.33854 17.6336 7.4905C17.7854 7.64246 17.8707 7.84856 17.8707 8.06347V12.115C17.8707 12.3299 17.956 12.536 18.1078 12.6879C18.2595 12.8399 18.4654 12.9253 18.6801 12.9253C18.8947 12.9253 19.1006 12.8399 19.2523 12.6879C19.4041 12.536 19.4894 12.3299 19.4894 12.115V8.06347C19.4894 7.41875 19.2336 6.80044 18.7782 6.34456C18.3229 5.88867 17.7053 5.63256 17.0613 5.63256ZM6.53976 5.63256C6.53976 4.77294 6.88085 3.94853 7.48798 3.34068C8.09511 2.73284 8.91856 2.39136 9.77717 2.39136C10.6358 2.39136 11.4592 2.73284 12.0664 3.34068C12.6735 3.94853 13.0146 4.77294 13.0146 5.63256H6.53976Z" fill="white"/>
</g>
<defs>
<clipPath id="clip0_54_1671">
<rect width="19.4245" height="19.4472" fill="white" transform="translate(0.0649414 0.770752)"/>
</clipPath>
</defs>
</svg>
