<svg width="12" height="10" viewBox="0 0 12 10" fill="none" xmlns="http://www.w3.org/2000/svg">
<path d="M4.44225 3.45563L4.74961 3.41302L4.89248 3.13756L6.20041 0.61578C6.20044 0.615729 6.20047 0.615678 6.20049 0.615627C6.20347 0.609939 6.20518 0.608824 6.20806 0.607207C6.21335 0.604239 6.22499 0.599948 6.24169 0.600001C6.25844 0.600053 6.27098 0.604463 6.27742 0.608103C6.2816 0.610463 6.28326 0.612107 6.28555 0.616434C6.28559 0.616515 6.28563 0.616596 6.28568 0.616679L7.59314 3.13756L7.73601 3.41302L8.04337 3.45563L10.97 3.86136L10.9704 3.86142C10.9813 3.86293 10.9878 3.8653 10.9911 3.86675C10.9935 3.86782 10.9952 3.86881 10.9963 3.86961L8.88178 5.82897L8.64071 6.05235L8.69915 6.37576L9.19841 9.13884C9.19742 9.13962 9.19629 9.14047 9.19498 9.14136C9.1856 9.14778 9.1738 9.15204 9.16257 9.15302C9.15338 9.15382 9.14299 9.15276 9.12927 9.1459L9.12918 9.14585L6.51107 7.83723L6.24281 7.70315L5.97455 7.83723L3.35645 9.14585L3.3546 9.14678C3.3411 9.15359 3.33119 9.15453 3.3226 9.15378C3.31191 9.15286 3.30041 9.14877 3.29107 9.14237C3.28953 9.14131 3.28822 9.14031 3.28711 9.13941L3.78647 6.37576L3.84491 6.05235L3.60385 5.82897L1.48936 3.86961C1.49047 3.86881 1.49211 3.86782 1.49452 3.86675C1.4978 3.8653 1.50429 3.86293 1.51525 3.86142L1.51566 3.86136L4.44225 3.45563Z" fill="white" stroke="#CCCCCC" stroke-width="1.2"/>
</svg>
