<svg width="11" height="10" viewBox="0 0 11 10" fill="none" xmlns="http://www.w3.org/2000/svg">
<path d="M3.67297 3.45563L3.98033 3.41302L4.12319 3.13756L5.43113 0.61578C5.43115 0.615729 5.43118 0.615678 5.43121 0.615627C5.43418 0.609939 5.43589 0.608824 5.43878 0.607207C5.44406 0.604239 5.4557 0.599948 5.4724 0.600001C5.48915 0.600053 5.50169 0.604463 5.50814 0.608103C5.51232 0.610463 5.51398 0.612107 5.51626 0.616434C5.5163 0.616515 5.51635 0.616596 5.51639 0.616679L6.82385 3.13756L6.96672 3.41302L7.27408 3.45563L10.2007 3.86136L10.2011 3.86142C10.212 3.86293 10.2185 3.8653 10.2218 3.86675C10.2242 3.86782 10.2259 3.86881 10.227 3.86961L8.11249 5.82897L7.87143 6.05235L7.92986 6.37576L8.42912 9.13884C8.42814 9.13962 8.427 9.14047 8.4257 9.14136C8.41631 9.14778 8.40451 9.15204 8.39328 9.15302C8.38409 9.15382 8.3737 9.15276 8.35998 9.1459L8.35989 9.14585L5.74178 7.83723L5.47352 7.70315L5.20527 7.83723L2.58716 9.14585L2.58531 9.14678C2.57181 9.15359 2.5619 9.15453 2.55331 9.15378C2.54262 9.15286 2.53112 9.14877 2.52179 9.14237C2.52024 9.14131 2.51893 9.14031 2.51783 9.13941L3.01719 6.37576L3.07562 6.05235L2.83456 5.82897L0.720069 3.86961C0.721183 3.86881 0.722822 3.86782 0.725229 3.86675C0.72851 3.8653 0.735007 3.86293 0.745959 3.86142L0.746376 3.86136L3.67297 3.45563Z" fill="white" stroke="#7AC751" stroke-width="1.2"/>
</svg>
