<svg width="24" height="24" viewBox="0 0 24 24" fill="none" xmlns="http://www.w3.org/2000/svg">
<path d="M11.7765 21.1554L3.53569 12.9049C2.44276 11.8108 1.8287 10.3268 1.82861 8.77949C1.82852 7.23213 2.4424 5.74811 3.5352 4.6539C4.628 3.55969 6.11021 2.94492 7.65576 2.94482C9.2013 2.94473 10.6836 3.55933 11.7765 4.65341C12.87 3.56057 14.3519 2.94677 15.8969 2.94677C17.442 2.94677 18.9239 3.56057 20.0173 4.65341V4.65341C21.1084 5.7484 21.7212 7.23196 21.7212 8.77866C21.7212 10.3254 21.1084 11.8089 20.0173 12.9039L11.7765 21.1554ZM7.65562 4.8897C6.88718 4.88967 6.13599 5.1178 5.49707 5.54524C4.85815 5.97268 4.36019 6.58022 4.06618 7.29102C3.77217 8.00182 3.69532 8.78395 3.84534 9.53848C3.99536 10.293 4.36552 10.9861 4.909 11.53L11.7765 18.4055L18.644 11.53C19.0385 11.1438 19.3463 10.678 19.5469 10.1636C19.7476 9.64909 19.8365 9.09773 19.8077 8.54617C19.779 7.99461 19.6332 7.45551 19.3802 6.96474C19.1271 6.47397 18.7725 6.04279 18.3401 5.69988C17.9076 5.35698 17.4072 5.11022 16.8721 4.97602C16.3369 4.84182 15.7794 4.82326 15.2365 4.92158C14.6937 5.0199 14.178 5.23284 13.7237 5.54623C13.2695 5.85962 12.8871 6.26627 12.6021 6.73913L11.7765 8.07321L10.951 6.73913C10.6102 6.17033 10.1268 5.7006 9.54876 5.37653C8.97071 5.05246 8.31809 4.8853 7.65562 4.89164V4.8897Z" fill="#757575"/>
</svg>
