<svg width="173" height="185" viewBox="0 0 173 185" fill="red" xmlns="http://www.w3.org/2000/svg">
<path d="M80.2255 98.7803C52.9965 98.7803 30.8353 76.6191 30.8353 49.3901C30.8353 22.1611 52.9965 0 80.2255 0C107.454 0 129.616 22.1611 129.616 49.3901C129.616 76.6191 107.454 98.7803 80.2255 98.7803ZM80.2255 12.8844C60.1258 12.8844 43.7197 29.2905 43.7197 49.3901C43.7197 69.4898 60.1258 85.8959 80.2255 85.8959C100.325 85.8959 116.731 69.4898 116.731 49.3901C116.731 29.2905 100.325 12.8844 80.2255 12.8844Z" fill="#292D32"/>
<path d="M113.034 184.675C109.77 184.675 106.678 183.473 104.444 181.239C101.782 178.577 100.579 174.711 101.18 170.674L102.812 159.078C103.242 156.072 105.046 152.55 107.193 150.317L137.6 119.91C149.797 107.713 160.534 114.67 165.774 119.91C170.241 124.376 172.56 129.187 172.56 133.997C172.56 138.893 170.326 143.445 165.774 147.998L135.366 178.405C133.219 180.552 129.612 182.356 126.605 182.786L115.009 184.417C114.321 184.589 113.721 184.675 113.034 184.675ZM151.601 126.008C150.055 126.008 148.681 127.039 146.705 129.015L116.298 159.422C116.04 159.68 115.611 160.539 115.611 160.882L114.065 171.619L124.802 170.073C125.145 169.987 126.003 169.558 126.261 169.3L156.669 138.893C158.043 137.518 159.675 135.543 159.675 133.997C159.675 132.708 158.645 130.904 156.669 129.015C154.607 126.953 153.061 126.008 151.601 126.008Z" fill="#292D32"/>
<path d="M156.85 154.353C156.248 154.353 155.647 154.268 155.132 154.096C143.793 150.918 134.774 141.899 131.596 130.561C130.651 127.125 132.627 123.603 136.063 122.658C139.499 121.714 143.02 123.689 143.965 127.125C145.941 134.169 151.524 139.752 158.568 141.727C162.003 142.672 163.979 146.28 163.034 149.63C162.261 152.464 159.684 154.353 156.85 154.353Z" fill="#292D32"/>
<path d="M6.44219 184.676C2.92046 184.676 0 181.756 0 178.234C0 141.556 35.9905 111.665 80.2271 111.665C89.5897 111.665 98.8665 113.039 107.542 115.616C110.978 116.647 112.868 120.254 111.837 123.604C110.806 127.04 107.198 128.93 103.848 127.899C96.2896 125.666 88.3872 124.463 80.2271 124.463C43.1199 124.463 12.8844 148.514 12.8844 178.148C12.8844 181.756 9.96392 184.676 6.44219 184.676Z" fill="#292D32"/>
</svg>
