<svg width="127" height="120" viewBox="0 0 127 120" fill="none" xmlns="http://www.w3.org/2000/svg">
<path d="M63.6079 81.9286C51.5113 81.9286 41.6938 72.1111 41.6938 60.0146C41.6938 47.9181 51.5113 38.1006 63.6079 38.1006C75.7044 38.1006 85.5219 47.9181 85.5219 60.0146C85.5219 72.1111 75.7044 81.9286 63.6079 81.9286ZM63.6079 46.8662C56.3616 46.8662 50.4594 52.7684 50.4594 60.0146C50.4594 67.2608 56.3616 73.163 63.6079 73.163C70.8541 73.163 76.7563 67.2608 76.7563 60.0146C76.7563 52.7684 70.8541 46.8662 63.6079 46.8662Z" fill="#292D32"/>
<path d="M82.3663 119.564C81.1391 119.564 79.9119 119.389 78.6847 119.096C75.0616 118.103 72.0228 115.824 70.0944 112.61L69.3932 111.441C65.9454 105.48 61.2119 105.48 57.7641 111.441L57.1213 112.551C55.1929 115.824 52.1541 118.161 48.531 119.096C44.8495 120.09 41.0511 119.564 37.837 117.635L27.7858 111.85C24.2211 109.805 21.6499 106.474 20.5395 102.442C19.4877 98.4095 20.0136 94.2604 22.0589 90.6958C23.7536 87.7155 24.2211 85.0273 23.2277 83.3327C22.2342 81.638 19.7214 80.6445 16.2736 80.6445C7.74176 80.6445 0.78772 73.6905 0.78772 65.1586V54.8737C0.78772 46.3418 7.74176 39.3878 16.2736 39.3878C19.7214 39.3878 22.2342 38.3943 23.2277 36.6997C24.2211 35.005 23.812 32.3169 22.0589 29.3366C20.0136 25.7719 19.4877 21.5644 20.5395 17.5907C21.5914 13.5585 24.1627 10.2275 27.7858 8.18224L37.8954 2.39694C44.4989 -1.51836 53.206 0.760696 57.1798 7.48099L57.881 8.64974C61.3288 14.6103 66.0622 14.6103 69.51 8.64974L70.1529 7.53943C74.1266 0.760696 82.8338 -1.51836 89.4956 2.45538L99.5468 8.24068C103.112 10.286 105.683 13.6169 106.793 17.6491C107.845 21.6813 107.319 25.8303 105.274 29.395C103.579 32.3753 103.112 35.0634 104.105 36.7581C105.098 38.4528 107.611 39.4462 111.059 39.4462C119.591 39.4462 126.545 46.4003 126.545 54.9321V65.2171C126.545 73.7489 119.591 80.703 111.059 80.703C107.611 80.703 105.098 81.6964 104.105 83.3911C103.112 85.0858 103.521 87.7739 105.274 90.7542C107.319 94.3189 107.903 98.5264 106.793 102.5C105.741 106.532 103.17 109.863 99.5468 111.909L89.4372 117.694C87.2166 118.921 84.8206 119.564 82.3663 119.564ZM63.6079 97.942C68.8088 97.942 73.6591 101.214 76.99 107L77.6328 108.11C78.3341 109.337 79.5028 110.214 80.9053 110.564C82.3078 110.915 83.7103 110.74 84.8791 110.039L94.9887 104.195C96.5081 103.318 97.6768 101.857 98.1443 100.104C98.6118 98.3511 98.3781 96.5395 97.5015 95.0201C94.1706 89.2933 93.7615 83.3911 96.3328 78.8914C98.904 74.3917 104.222 71.8205 110.884 71.8205C114.624 71.8205 117.604 68.8402 117.604 65.1002V54.8152C117.604 51.1337 114.624 48.0949 110.884 48.0949C104.222 48.0949 98.904 45.5237 96.3328 41.024C93.7615 36.5243 94.1706 30.6222 97.5015 24.8953C98.3781 23.3759 98.6118 21.5644 98.1443 19.8113C97.6768 18.0582 96.5665 16.6557 95.0472 15.7207L84.9375 9.93536C82.4247 8.41599 79.0938 9.29255 77.5744 11.8638L76.9316 12.9741C73.6007 18.7594 68.7504 22.0319 63.5494 22.0319C58.3485 22.0319 53.4982 18.7594 50.1673 12.9741L49.5245 11.8054C48.0635 9.35099 44.791 8.47443 42.2782 9.93536L32.1686 15.7791C30.6492 16.6557 29.4805 18.1166 29.013 19.8697C28.5455 21.6228 28.7792 23.4344 29.6558 24.9538C32.9867 30.6806 33.3958 36.5828 30.8245 41.0825C28.2533 45.5821 22.9355 48.1534 16.2736 48.1534C12.5336 48.1534 9.55332 51.1337 9.55332 54.8737V65.1586C9.55332 68.8402 12.5336 71.8789 16.2736 71.8789C22.9355 71.8789 28.2533 74.4502 30.8245 78.9499C33.3958 83.4495 32.9867 89.3517 29.6558 95.0786C28.7792 96.5979 28.5455 98.4095 29.013 100.163C29.4805 101.916 30.5908 103.318 32.1101 104.253L42.2198 110.039C43.447 110.798 44.9079 110.974 46.252 110.623C47.6545 110.272 48.8232 109.337 49.5829 108.11L50.2257 107C53.5566 101.273 58.4069 97.942 63.6079 97.942Z" fill="#292D32"/>
</svg>
