<svg width="24" height="25" viewBox="0 0 24 25" fill="none" xmlns="http://www.w3.org/2000/svg">
<path d="M12 8.73633C13.1 8.73633 14 7.83633 14 6.73633C14 5.63633 13.1 4.73633 12 4.73633C10.9 4.73633 10 5.63633 10 6.73633C10 7.83633 10.9 8.73633 12 8.73633ZM12 10.7363C10.9 10.7363 10 11.6363 10 12.7363C10 13.8363 10.9 14.7363 12 14.7363C13.1 14.7363 14 13.8363 14 12.7363C14 11.6363 13.1 10.7363 12 10.7363ZM12 16.7363C10.9 16.7363 10 17.6363 10 18.7363C10 19.8363 10.9 20.7363 12 20.7363C13.1 20.7363 14 19.8363 14 18.7363C14 17.6363 13.1 16.7363 12 16.7363Z" fill="#266C00"/>
</svg>
